<svg width="32" height="32" viewBox="0 0 32 32" fill="none" xmlns="http://www.w3.org/2000/svg">
<path fill-rule="evenodd" clip-rule="evenodd" d="M16 32C24.8359 32 32 24.8364 32 16C32 7.16357 24.8359 0 16 0C7.16406 0 0 7.16357 0 16C0 24.8364 7.16406 32 16 32ZM17.6504 16.0454V24.9038C17.0645 24.9678 16.4746 25 15.8848 25C15.373 25 14.8672 24.9761 14.3691 24.9292C13.9785 24.8926 13.5938 24.8418 13.2148 24.7783V16.0459H11V12.9277H13.2148V11.0562C13.2148 8.51221 14.4668 7 18.0195 7H20.9785V10.1182H19.1289C18.4551 10.1182 18.0879 10.2217 17.8887 10.4219C17.6777 10.6328 17.6543 10.9502 17.6543 11.3672L17.6504 12.9277H21L20.6074 16.0454H17.6504Z" fill="#EBEBEB"/>
</svg>
