<?xml version="1.0" encoding="UTF-8"?>
<svg id="Layer_2" data-name="Layer 2" xmlns="http://www.w3.org/2000/svg" viewBox="0 0 21.83 21.83">
  <defs>
    <style>
      .cls-1 {
        fill: #fff;
      }

      .cls-2 {
        fill: none;
        stroke: #000;
        stroke-miterlimit: 10;
      }
    </style>
  </defs>
  <g id="Layer_1-2" data-name="Layer 1">
    <g>
      <circle class="cls-1" cx="10.91" cy="10.92" r="10.42"/>
      <path d="m10.91,1c5.47,0,9.91,4.45,9.91,9.91s-4.45,9.91-9.91,9.91S1,16.38,1,10.91,5.45,1,10.91,1m0-1C4.89,0,0,4.89,0,10.91s4.89,10.91,10.91,10.91,10.91-4.89,10.91-10.91S16.94,0,10.91,0h0Z"/>
    </g>
    <g>
      <line class="cls-2" x1="10.66" y1="5.81" x2="10.66" y2="17.81"/>
      <polygon points="6.57 9.12 7.3 9.8 10.66 6.19 14.02 9.8 14.75 9.12 10.66 4.72 6.57 9.12"/>
    </g>
  </g>
</svg>