<?xml version="1.0" encoding="utf-8"?>
<!-- Generator: Adobe Illustrator 27.2.0, SVG Export Plug-In . SVG Version: 6.00 Build 0)  -->
<svg version="1.1" id="Layer_1" xmlns="http://www.w3.org/2000/svg" xmlns:xlink="http://www.w3.org/1999/xlink" x="0px" y="0px"
	 viewBox="0 0 64 64" style="enable-background:new 0 0 64 64;" xml:space="preserve">
<style type="text/css">
	.st0{opacity:0.15;fill:#2F2F7F;}
	.st1{fill:#2F2F7F;}
	.st2{opacity:0.2;fill:#FFFFFF;}
	.st3{fill:#FFFFFF;}
</style>
<path class="st1" d="M15.41,38.41h20.65c0.78,0,1.41-0.63,1.41-1.41v-1.68c0-0.78-0.63-1.41-1.41-1.41H15.41
	c-0.78,0-1.41,0.63-1.41,1.41V37C14,37.78,14.63,38.41,15.41,38.41z M15.41,28.66h33.18c0.78,0,1.41-0.63,1.41-1.41v-1.68
	c0-0.78-0.63-1.41-1.41-1.41H15.41c-0.78,0-1.41,0.63-1.41,1.41v1.68C14,28.03,14.63,28.66,15.41,28.66z M15.41,18.91h33.18
	c0.78,0,1.41-0.63,1.41-1.41v-1.68c0-0.78-0.63-1.41-1.41-1.41H15.41c-0.78,0-1.41,0.63-1.41,1.41v1.68
	C14,18.28,14.63,18.91,15.41,18.91z M4.41,59.92C3.52,60.81,2,60.18,2,58.92V6.83c0-1.15,0.45-2.19,1.35-3.11S5.3,2.33,6.5,2.33h51
	c1.15,0,2.19,0.46,3.11,1.39C61.54,4.64,62,5.68,62,6.83v39c0,1.15-0.46,2.19-1.39,3.11c-0.93,0.92-1.96,1.39-3.11,1.39H14.58
	c-0.37,0-0.73,0.15-1,0.41L4.41,59.92z M7.85,50.11l3.86-3.86c0.26-0.26,0.62-0.41,1-0.41h43.38c0.78,0,1.41-0.63,1.41-1.41V8.24
	c0-0.78-0.63-1.41-1.41-1.41H7.91c-0.78,0-1.41,0.63-1.41,1.41v41.31C6.5,50.25,7.35,50.61,7.85,50.11z M6.5,6.83v44.62V6.83z"/>
</svg>
