<svg width="128" height="128" viewBox="0 0 128 128" fill="none" xmlns="http://www.w3.org/2000/svg">
<g clip-path="url(#clip0_44_478)">
<path d="M61.1398 94.0422V88.3722C58.3098 87.5222 55.8798 86.2222 53.8998 84.5022C51.7598 82.6422 49.9298 80.0722 48.4698 76.8822L48.0098 75.8722L55.1498 73.4922L55.4598 74.4622C56.1898 76.7822 57.5098 78.6422 59.3598 79.9822C61.2198 81.3222 63.3698 82.0022 65.7598 82.0022C68.1498 82.0022 70.2598 81.4122 71.8498 80.2422C73.3698 79.1222 74.1098 77.7022 74.1098 75.8722C74.1098 73.9422 73.3998 72.3622 71.9298 71.0422C70.3498 69.6222 67.3298 67.9722 62.9698 66.1522C58.8498 64.4322 55.7098 62.5422 53.6198 60.5222C51.4198 58.3922 50.2998 55.5122 50.2998 51.9622C50.2998 48.7622 51.4098 45.9922 53.5998 43.7322C55.5798 41.6822 58.1898 40.3522 61.3598 39.7622V34.4922H68.8898V39.7422C71.2298 40.1122 73.3198 40.9422 75.0998 42.2122C77.0998 43.6422 78.7298 45.6322 79.9398 48.1122L80.3798 49.0122L73.7898 52.1722L73.3398 51.3322C72.4198 49.6222 71.2898 48.3222 69.9698 47.4822C68.6698 46.6522 67.0898 46.2322 65.2798 46.2322C62.9098 46.2322 61.0398 46.7622 59.7298 47.8222C58.4598 48.8322 57.8498 50.1922 57.8498 51.9622C57.8498 53.7322 58.5698 55.1922 60.0498 56.2822C61.7198 57.5022 64.4898 58.9122 68.2798 60.4822C73.0198 62.4722 76.4498 64.6222 78.4798 66.8622C80.5898 69.1822 81.6498 72.2222 81.6498 75.8722C81.6498 77.6722 81.3198 79.3622 80.6598 80.8922C79.9998 82.4222 79.0598 83.7622 77.8498 84.8522C76.6598 85.9322 75.1898 86.8222 73.4798 87.5022C72.0398 88.0722 70.4298 88.4822 68.6898 88.7122V94.0522H61.1598L61.1398 94.0422Z" fill="#1D428A"/>
<path d="M111.969 46.87C104.899 27.68 86.4593 14 64.8193 14C41.5793 14 22.0293 29.78 16.2793 51.21" stroke="#1D428A" stroke-width="6" stroke-miterlimit="10"/>
<path d="M121.55 27.3622L117.58 25.9922L110.85 45.5722L91.8102 37.4322L90.1602 41.3022L113.36 51.2122L121.55 27.3622Z" fill="#1D428A"/>
<path d="M17.1602 80.2003C23.8302 100.14 42.6402 114.51 64.8202 114.51C88.5902 114.51 108.5 98.0003 113.73 75.8203" stroke="#1D428A" stroke-width="6" stroke-miterlimit="10"/>
<path d="M7 99.4203L10.93 100.91L18.24 81.5303L37.03 90.2403L38.8 86.4203L15.91 75.8203L7 99.4203Z" fill="#1D428A"/>
</g>
<defs>
<clipPath id="clip0_44_478">
<rect width="114.55" height="106.51" fill="white" transform="translate(7 11)"/>
</clipPath>
</defs>
</svg>
