<svg id="Layer_1" data-name="Layer 1" xmlns="http://www.w3.org/2000/svg" viewBox="0 0 153.69 46"><defs><style>.cls-1{fill:#f89822;}.cls-1,.cls-2{fill-rule:evenodd;}.cls-2,.cls-3{fill:#010101;}</style></defs><title>Amazon</title><path class="cls-1" d="M90.93,38.37C82.41,44.66,70.07,48,59.43,48A57,57,0,0,1,21,33.32c-.79-.72-.08-1.7.88-1.14A77.46,77.46,0,0,0,60.33,42.39a76.58,76.58,0,0,0,29.36-6C91.13,35.77,92.34,37.33,90.93,38.37Z" transform="translate(0 -2)"/><path class="cls-1" d="M94.47,34.33c-1.09-1.4-7.2-.66-9.94-.33-.84.1-1-.63-.22-1.16,4.88-3.42,12.87-2.43,13.79-1.29s-.24,9.17-4.81,13c-.7.59-1.37.27-1.06-.5C93.26,41.47,95.56,35.72,94.47,34.33Z" transform="translate(0 -2)"/><path class="cls-2" d="M84.72,8.66V5.33a.81.81,0,0,1,.84-.84h14.91a.83.83,0,0,1,.86.84V8.18c0,.48-.4,1.1-1.12,2.09l-7.72,11a16.44,16.44,0,0,1,8.5,1.83,1.5,1.5,0,0,1,.79,1.3V28c0,.49-.53,1.06-1.1.77a17.16,17.16,0,0,0-15.75,0c-.52.28-1.06-.28-1.06-.77V24.62a4.06,4.06,0,0,1,.55-2.29l9-12.83H85.58A.82.82,0,0,1,84.72,8.66Z" transform="translate(0 -2)"/><path class="cls-2" d="M30.33,29.44H25.79a.87.87,0,0,1-.81-.77V5.39a.86.86,0,0,1,.88-.84h4.22a.85.85,0,0,1,.83.78v3H31a6,6,0,0,1,6-4.31c2.84,0,4.62,1.37,5.89,4.31A6.71,6.71,0,0,1,54.37,6.6c1.44,2,1.14,4.81,1.14,7.3V28.6a.86.86,0,0,1-.88.84H50.1a.85.85,0,0,1-.81-.84V16.26a30,30,0,0,0-.13-4.36,2.37,2.37,0,0,0-2.67-2,3,3,0,0,0-2.71,1.91,14.23,14.23,0,0,0-.42,4.46V28.6a.86.86,0,0,1-.88.84H38a.85.85,0,0,1-.81-.84V16.26c0-2.6.43-6.42-2.79-6.42s-3.13,3.72-3.13,6.42V28.6A.86.86,0,0,1,30.33,29.44Z" transform="translate(0 -2)"/><path class="cls-2" d="M114.17,4.06c6.73,0,10.37,5.78,10.37,13.13,0,7.1-4,12.74-10.37,12.74-6.61,0-10.21-5.79-10.21-13S107.61,4.06,114.17,4.06Zm0,4.75c-3.34,0-3.56,4.56-3.56,7.4s0,8.91,3.52,8.91,3.68-4.9,3.68-7.88a21.67,21.67,0,0,0-.67-6.18A2.85,2.85,0,0,0,114.21,8.81Z" transform="translate(0 -2)"/><path class="cls-2" d="M133.27,29.44h-4.52a.85.85,0,0,1-.81-.84V5.31a.86.86,0,0,1,.87-.76H133a.86.86,0,0,1,.81.65V8.76h.08c1.27-3.18,3-4.7,6.19-4.7a5.94,5.94,0,0,1,5.29,2.74c1.18,1.86,1.18,5,1.18,7.25V28.7a.86.86,0,0,1-.86.74h-4.55a.87.87,0,0,1-.81-.74V16.06c0-2.55.3-6.27-2.84-6.27a3,3,0,0,0-2.62,1.86,10.27,10.27,0,0,0-.72,4.41V28.6A.88.88,0,0,1,133.27,29.44Z" transform="translate(0 -2)"/><path class="cls-2" d="M72.83,18.32c0,1.76,0,3.24-.85,4.81a3.66,3.66,0,0,1-3.14,2.06c-1.74,0-2.75-1.33-2.75-3.29,0-3.86,3.46-4.57,6.74-4.57Zm4.58,11.06a1,1,0,0,1-1.08.1,11.29,11.29,0,0,1-2.6-3c-2.49,2.54-4.25,3.3-7.47,3.3-3.82,0-6.79-2.36-6.79-7.07a7.71,7.71,0,0,1,4.83-7.42c2.46-1.08,5.9-1.27,8.53-1.57v-.59a5.79,5.79,0,0,0-.55-3.29,3,3,0,0,0-2.54-1.18,3.46,3.46,0,0,0-3.65,2.73,1,1,0,0,1-.79.83l-4.4-.47a.8.8,0,0,1-.67-1c1-5.34,5.82-6.95,10.14-6.95,2.21,0,5.09.59,6.83,2.26,2.21,2.06,2,4.81,2,7.81V21a6.2,6.2,0,0,0,1.71,4.2.85.85,0,0,1,0,1.2c-.93.78-2.58,2.21-3.48,3Z" transform="translate(0 -2)"/><path class="cls-2" d="M13.37,18.32a8.91,8.91,0,0,1-.85,4.81,3.68,3.68,0,0,1-3.14,2.06c-1.74,0-2.76-1.33-2.76-3.29,0-3.86,3.47-4.57,6.75-4.57Zm4.57,11.06a.94.94,0,0,1-1.07.1,10.94,10.94,0,0,1-2.6-3C11.78,29,10,29.76,6.79,29.76,3,29.76,0,27.4,0,22.69a7.7,7.7,0,0,1,4.84-7.42c2.46-1.08,5.9-1.27,8.53-1.57v-.59a5.88,5.88,0,0,0-.55-3.29,3.07,3.07,0,0,0-2.55-1.18,3.46,3.46,0,0,0-3.65,2.73,1,1,0,0,1-.79.83l-4.39-.47a.81.81,0,0,1-.68-1c1-5.34,5.83-6.95,10.15-6.95,2.2,0,5.09.59,6.83,2.26,2.2,2.06,2,4.81,2,7.81V21c0,2.12.89,3.05,1.71,4.2a.85.85,0,0,1,0,1.2c-.93.78-2.57,2.21-3.48,3Z" transform="translate(0 -2)"/><path class="cls-3" d="M150.68,2a3.09,3.09,0,0,1,1.48.39,2.81,2.81,0,0,1,1.13,1.11,3.09,3.09,0,0,1,.4,1.52,3,3,0,0,1-.4,1.49,2.78,2.78,0,0,1-1.11,1.12,3,3,0,0,1-3,0,2.87,2.87,0,0,1-1.12-1.12,3.11,3.11,0,0,1-.4-1.49,3.1,3.1,0,0,1,.41-1.52,2.75,2.75,0,0,1,1.13-1.11A3.06,3.06,0,0,1,150.68,2Zm0,.5a2.63,2.63,0,0,0-1.24.32,2.36,2.36,0,0,0-.94.94A2.59,2.59,0,0,0,148.16,5a2.41,2.41,0,0,0,.34,1.24,2.31,2.31,0,0,0,.93.93,2.45,2.45,0,0,0,1.25.34,2.48,2.48,0,0,0,1.25-.34,2.31,2.31,0,0,0,.93-.93,2.5,2.5,0,0,0,0-2.5,2.3,2.3,0,0,0-.94-.94A2.62,2.62,0,0,0,150.68,2.5Zm-1.32,4.18V3.44h1.11a2.75,2.75,0,0,1,.83.09.77.77,0,0,1,.4.31.79.79,0,0,1,.16.48.89.89,0,0,1-.26.62,1,1,0,0,1-.67.29,1.22,1.22,0,0,1,.28.17,3.55,3.55,0,0,1,.47.65l.4.63h-.64l-.29-.51a2.92,2.92,0,0,0-.54-.76.72.72,0,0,0-.42-.11h-.31V6.68Zm.52-1.82h.63a1.06,1.06,0,0,0,.63-.14.44.44,0,0,0,.16-.36.47.47,0,0,0-.08-.26.54.54,0,0,0-.22-.17,2,2,0,0,0-.53-.05h-.59Z" transform="translate(0 -2)"/></svg>