<svg id="Layer_1" data-name="Layer 1" xmlns="http://www.w3.org/2000/svg" viewBox="0 0 411.17 49.74"><defs><style>.cls-1{fill:#075aa6;}.cls-1,.cls-2{fill-rule:evenodd;}.cls-2{fill:#d22328;}</style></defs><title>Bank of America</title><path class="cls-1" d="M173.36,41.44h7.55v-11h0c0-4.5.59-6.25,2.38-6.25s2.38,1.75,2.38,4.5h0V41.44h7.54v-11h0c0-4.5.6-6.25,2.38-6.25,1.59,0,2.38,1.5,2.38,4h0V41.44h7.54V26.19h0c0-6.25-2.18-9.51-7.54-9.51a6.48,6.48,0,0,0-5.75,3h0l-.4.5h0c-1.39-2.26-2.78-3.75-5.75-3.75a5.93,5.93,0,0,0-5.56,3h0l-1.19-2.24h-6V41.44Z"/><path class="cls-1" d="M161.35,7.48h-8.13l-9.53,34H152l1.2-4.76H162l1.19,4.76h8.33l-10.12-34Zm-6.38,22,2.38-8.76,2.58,8.76Z"/><path class="cls-1" d="M21.43,24.23l-.79-.75h0c1.59-1.75,2.58-3,2.58-6.75,0-5.75-2.78-9-8.34-9H0V41.49H13.1c7.34,0,11.51-2,11.51-9.51a10.59,10.59,0,0,0-3.18-7.75ZM8.92,16.06h4.36c1.79,0,2.18.74,2.18,2.74s-.59,2-2.38,2H8.92V16.06Zm5.16,17.33H8.92V28.14h5.36c1.59,0,2.38.75,2.38,2.75,0,2.25-.59,2.5-2.58,2.5Z"/><polygon class="cls-1" points="72.14 41.48 79.68 41.48 79.68 31.23 85.03 41.48 93.57 41.48 86.03 26.98 92.97 17.23 84.24 17.23 79.68 23.73 79.68 8.22 72.14 8.22 72.14 41.48 72.14 41.48"/><path class="cls-1" d="M48.68,41.44h7.54v-11h0c0-4.5,1.19-6.5,3.17-6.5,2.19,0,3,2,3,5h0v12.5h7.54V27.69h0c0-7.25-2.38-11.5-7.54-11.5A6.28,6.28,0,0,0,57,18.94h0l-.39.49-.8-2.24H48.68V41.44Z"/><path class="cls-1" d="M110.33,16.16c-6.16,0-10.32,5.75-10.32,13.51s4.16,12.75,10.91,12.75c6.94,0,10.12-5,10.12-12.25,0-9-3.77-14-10.71-14Zm.39,19.73c-3.14,0-3.17-4.34-3.17-6.56,0-3.36.72-6.19,3.17-6.19,2.17,0,3,1.92,3,5.92,0,5.09-1.07,6.83-3,6.83Z"/><path class="cls-1" d="M218.51,36.17c-1.78,0-2.78-1.25-3.17-4h13.09c0-9.51-3.17-16-10.12-16-6.35,0-10.51,5.25-10.51,13.51,0,7.87,4.16,13.13,10.91,13.13,5.56,0,7.94-3.38,9.72-8.88h-6.55c-.19,1.25-1.39,2.25-3.37,2.25ZM218.3,23c1.79,0,2.78,1.5,3,3.5h-6.15c.4-2.25,1.39-3.5,3.17-3.5Z"/><path class="cls-1" d="M36.36,16.63c-6.55,0-9.53,3.51-9.53,9.26h6.35a3.13,3.13,0,0,1,3.18-3.26,2.06,2.06,0,0,1,1.78,2.26c0,4.25-12.5,0-12.5,10.5,0,4.5,2.38,7.25,6.35,7.25a8,8,0,0,0,6.35-2.75h0l1.19,1.5h6.55V28.64h0c0-8-2-12-9.72-12Zm1.78,17.23a3.29,3.29,0,0,1-2.78,3,1.84,1.84,0,0,1-1.79-2c0-1.49,1.19-3.24,4.57-3.75h0v2.75Z"/><path class="cls-1" d="M289.25,16.66c-6.35,0-9.72,3.25-9.72,9.25h6.35a3,3,0,0,1,3.17-3.25,2,2,0,0,1,1.79,2.25c0,4.25-12.1,0-12.1,10.5,0,4.5,2.38,7,6.35,7,2.77,0,5-1,6-2.51h0l1.19,1.51h6.55V28.66h0c0-7.75-1.79-12-9.53-12Zm1.59,17.2a3.29,3.29,0,0,1-2.78,3,1.84,1.84,0,0,1-1.79-2c0-1.49,1.19-3.24,4.57-3.75h0v2.75Z"/><path class="cls-1" d="M270.19,31.64c-.2,3.25-.8,4-2.78,4-2.78,0-3.77-2.5-3.77-5.75,0-4,.6-6.5,3.37-6.5,1.79,0,2,.25,3.18,3h5.95c-.4-6.25-2.58-9.76-9.13-9.76-6.15,0-9.92,4.51-9.92,12.26,0,8.5,3.38,13.75,10.12,13.75,5.16,0,9.13-3.25,9.53-9.25h0l.2-1.75Z"/><path class="cls-1" d="M231,41.44h7.54v-8.5h0c0-6.26,1.39-8,5.75-8.51h.8v-7.5h0c-2.58,0-4.57,0-6.75,3h0l-1.19-2.75H231V41.44Z"/><path class="cls-1" d="M123.45,23.23H126V41.48h7.54V23.23h3.18v-6h-3.18c0-2.5.4-2.75,1.19-2.75h2.38V8H132c-3.38,0-5.56.76-5.56,6h0v3.25h-3v6Z"/><polygon class="cls-1" points="247.21 41.44 254.75 41.44 254.75 17.18 247.21 17.18 247.21 41.44 247.21 41.44"/><polygon class="cls-1" points="247.21 14.62 254.75 14.62 254.75 7.62 247.21 7.62 247.21 14.62 247.21 14.62"/><path class="cls-1" d="M347.19,10.83c-3.75,1.59-20.11,8.88-26.22,12.45-2.64-1-4.88-1.77-7.94-2.91C325.73,13,339.54,8.76,339.77,8.45,342.36,9.13,344.56,10.2,347.19,10.83Z"/><path class="cls-1" d="M359.46,16c-3.75,1.58-20.22,9.53-26.34,13.1-2.85-1.43-5.63-2.86-8.47-4,12.7-7.41,25.88-12.32,26.12-12.63C353.21,13.37,356.88,15,359.46,16Z"/><path class="cls-2" d="M399.09,13.17c-3.75,1.58-29.57,9.93-54,26.19-3.1-1.9-8.09-4.78-11.14-5.78,12.7-7.4,29.53-18.56,55.18-25.15C393,10.13,395.63,11.6,399.09,13.17Z"/><path class="cls-2" d="M411.17,20c-3.75,1.59-35.09,16.56-50.29,29.79-2.78-1.62-8.82-6.17-11.64-7.68,12.18-7.86,27.66-19.26,53-26.93A72.2,72.2,0,0,1,411.17,20Z"/><path class="cls-2" d="M347.41,3c6.68,2.18,16.46,5.57,22.84,8.83-2,1.1-4.76,1.85-7.21,2.87-16.24-6.81-22.82-8.81-23.13-9C341.36,5,346.15,3.39,347.41,3Z"/><path class="cls-2" d="M359.25,0c6.69,2.18,16.9,5.09,23.28,8.35a55.72,55.72,0,0,0-7.8,2.22C358.49,3.76,352.51,2,352.21,1.76,353.66,1.13,358,.42,359.25,0Z"/></svg>