<svg id="Layer_1" data-name="Layer 1" xmlns="http://www.w3.org/2000/svg" viewBox="0 0 58.94 38.87"><defs><style>.cls-1{fill:#2371b9;}</style></defs><title>intel</title><path id="path4423" class="cls-1" d="M17.36,22.05v9.52h-3v-12h6.26a3.31,3.31,0,0,1,3.56,3.58v8.38h-3V23.2c0-.71-.37-1.15-1.26-1.15ZM38,21.91a2.34,2.34,0,0,0-2.18,1.25,3.39,3.39,0,0,0-.29,1.3h4.66c-.06-1.3-.64-2.55-2.19-2.55M35.5,26.52a2.52,2.52,0,0,0,2.69,2.69A3.38,3.38,0,0,0,41,28.07l1.88,1.79a6,6,0,0,1-4.68,1.9c-2.9,0-5.67-1.58-5.67-6.19,0-3.94,2.42-6.17,5.61-6.17s5.09,2.61,5.09,6v1.09H35.5m-5.57,5a3.25,3.25,0,0,1-3.51-3.41V16.35h3v3.26h2.28v2.44H29.44V28a.94.94,0,0,0,1,1.08h1.23v2.52H29.93M11.64,18H8.59V15.06h3.05Zm0,13.75a3,3,0,0,1-3.06-3.21V19.61h3.06V31.7ZM48,31.44a3,3,0,0,1-3-3.2V14.64h3ZM58.68,16.61c-2.77-13.49-29-14.34-45.83-4.07v1.13C29.71,5,53.62,5.06,55.8,17.48c.73,4.11-1.59,8.4-5.72,10.86v3.22c5-1.82,10.08-7.72,8.6-14.95M28,40.21C16.35,41.29,4.21,39.6,2.51,30.49,1.68,26,3.72,21.25,6.44,18.3V16.72c-4.89,4.28-7.53,9.7-6,16.1C2.38,41,12.79,45.68,28.7,44.14,35,43.52,43.22,41.5,49,38.36V33.9c-5.2,3.09-13.79,5.65-21,6.31" transform="translate(0 -5.57)"/><path id="path4425" class="cls-1" d="M51.53,15.55c0-.15-.08-.2-.28-.2h-.19v.42h.19c.2,0,.28-.07.28-.21v0Zm.3,1H51.6s0,0,0,0L51.25,16l0,0h-.14v.52a.06.06,0,0,1-.06.06h-.2a.06.06,0,0,1-.05-.06V15.22c0-.08,0-.11.09-.12l.37,0c.38,0,.61.11.61.47v0a.37.37,0,0,1-.28.39l.32.54s0,0,0,0a0,0,0,0,1-.05.05m-.54-1.74a1,1,0,1,0,1,1,1,1,0,0,0-1-1m0,2.22a1.22,1.22,0,0,1,0-2.43,1.22,1.22,0,1,1,0,2.43" transform="translate(0 -5.57)"/></svg>