<svg id="Layer_1" data-name="Layer 1" xmlns="http://www.w3.org/2000/svg" viewBox="0 0 50 50"><defs><style>.cls-1{fill:#fff;}.cls-2{fill:#3c74b8;}</style></defs><title>ge</title><path class="cls-1" d="M27.64,1.27A23.8,23.8,0,0,1,53.12,22.63a23.55,23.55,0,0,1-2.81,13.84A23.89,23.89,0,0,1,40.06,46.3a23.35,23.35,0,0,1-11,2.49,23.71,23.71,0,0,1-14.39-5.13A23.82,23.82,0,0,1,19.18,3.53a23.52,23.52,0,0,1,8.46-2.26M23.43,3.53a18.34,18.34,0,0,0-10.34,7A19.21,19.21,0,0,0,10,18.4a8.42,8.42,0,0,0,.55,5.2c.4.78,1.09,1.38,1.44,2.19a1.71,1.71,0,0,1-.61,2.12,1.87,1.87,0,0,1-2.2-.2,4.5,4.5,0,0,1-1.41-2.83,17.28,17.28,0,0,1,.71-7c-.47.2-.4.85-.58,1.26A23.4,23.4,0,0,0,8,31.3,18.41,18.41,0,0,0,14.37,41a18.84,18.84,0,0,0,8.15,3.49,8.79,8.79,0,0,0,5.32-.38c.81-.41,1.43-1.12,2.23-1.56a1.79,1.79,0,0,1,2.08.32,1.85,1.85,0,0,1,.12,2.33A4.1,4.1,0,0,1,30,46.53a13.41,13.41,0,0,1-5.71-.09,14.3,14.3,0,0,0-2-.41,3.13,3.13,0,0,0,1.42.58,24,24,0,0,0,11.28,0,18.35,18.35,0,0,0,10.79-7A19.38,19.38,0,0,0,48.84,32c.3-2,.45-4.25-.76-6-.56-.83-1.47-1.63-1.29-2.74A1.66,1.66,0,0,1,49,21.91a3.64,3.64,0,0,1,2.08,2.92,16.3,16.3,0,0,1-.64,7.33.35.35,0,0,0,.31-.28,22.58,22.58,0,0,0,.66-10.83A19.31,19.31,0,0,0,45.47,9.87,16.74,16.74,0,0,0,38.6,6.16,12.57,12.57,0,0,0,32,5.64a7.63,7.63,0,0,0-2.76,1.61,2,2,0,0,1-2.55-.09,1.85,1.85,0,0,1,0-2.33,4.47,4.47,0,0,1,2.86-1.5,15.2,15.2,0,0,1,5.12.25,19.43,19.43,0,0,0,2,.47,1.26,1.26,0,0,0-.46-.3,22.26,22.26,0,0,0-12.76-.22Z" transform="translate(-4.46)"/><path class="cls-1" d="M24,12a3.28,3.28,0,0,1,3-.11A2.24,2.24,0,0,1,28,14a8.43,8.43,0,0,1-1.91,4.41,10,10,0,0,1-4,3,1.23,1.23,0,0,0,1.07,1,3.91,3.91,0,0,0,2.58-1.23c.52-.39.55-1.08.79-1.63a4,4,0,0,1,1.7-2.23,1,1,0,0,1,1.32.18,1.9,1.9,0,0,1-.27,1.79,16.52,16.52,0,0,1-1.55,2.08,7.5,7.5,0,0,0-.24,2,20,20,0,0,0,2-1.15A39.71,39.71,0,0,0,33,20a5.76,5.76,0,0,0,0-1.31A8.23,8.23,0,0,1,35,12.88a3.77,3.77,0,0,1,3.55-1.28,2.18,2.18,0,0,1,1.63,1.54,4.37,4.37,0,0,1-.71,3.29,15.64,15.64,0,0,1-4,4,2,2,0,0,0,1,1.27,6.19,6.19,0,0,1,2.38-.21,1.87,1.87,0,0,1,1.43.81c.25.52-.22,1-.69,1.21a8.13,8.13,0,0,1-3.11.07,5.66,5.66,0,0,0-3.06,2.09,7.55,7.55,0,0,0-1.29,5.54,5.7,5.7,0,0,0,2.44,4.05,4.21,4.21,0,0,0,5.17-.57,4.67,4.67,0,0,0,.93-4.94A2.29,2.29,0,0,0,39,28.28a1.78,1.78,0,0,0-2.14,1.36,2.47,2.47,0,0,0,.84,1.91.9.9,0,0,1-.05,1.32,1.74,1.74,0,0,1-2.1-.39,3.64,3.64,0,0,1,0-4.91,4.41,4.41,0,0,1,6.34-.06,6.21,6.21,0,0,1,.62,7.18,6.75,6.75,0,0,1-4.77,3.25,7,7,0,0,1-6-2,8.57,8.57,0,0,1-.09-11.39,10.56,10.56,0,0,1,2.74-2.14c-.21-.29-.44-.57-.67-.85a63.73,63.73,0,0,1-6,3.85c-.36.13-.3.56-.35.86-.18,2.57-.4,5.25-1.68,7.55a7.78,7.78,0,0,1-3.92,3.77,4.87,4.87,0,0,1-4.35-.27,4.05,4.05,0,0,1-1.68-3.69,7.56,7.56,0,0,1,2.48-4.57,27.74,27.74,0,0,1,6-3.82,8.37,8.37,0,0,0,1.27-.73,4.37,4.37,0,0,0,.21-1.19,4.31,4.31,0,0,1-3.71.68,3.65,3.65,0,0,1-2-2.37,3.7,3.7,0,0,1-2.54-1.27A4.31,4.31,0,0,1,17,15.73,1.45,1.45,0,0,1,18.45,15c.11.22.32.44.24.72a5.67,5.67,0,0,0-.18,2.86,1.64,1.64,0,0,0,1.36,1.26A11.93,11.93,0,0,1,21,15.33,7.56,7.56,0,0,1,24,12m.9,1.51A6.4,6.4,0,0,0,23,16a9.21,9.21,0,0,0-1,3.47,3.33,3.33,0,0,0,1-.61,11.54,11.54,0,0,0,2.81-3.55,2.43,2.43,0,0,0,.31-1.6.76.76,0,0,0-1.15-.29m11.81.47a6.87,6.87,0,0,0-1.63,4.53,12.37,12.37,0,0,0,3.06-3.54c.21-.44.49-1.16,0-1.48s-1.05.12-1.38.49M20.54,29.8a7.54,7.54,0,0,0-2.45,3.43,2.23,2.23,0,0,0,.4,2.25,2.38,2.38,0,0,0,2.42.14,5.86,5.86,0,0,0,3-3.39,19.3,19.3,0,0,0,1.31-5.4,20.77,20.77,0,0,0-4.65,3Z" transform="translate(-4.46)"/><path class="cls-2" d="M27.65.07A24.93,24.93,0,0,1,41.9,3.32a25,25,0,0,1-4.31,45.33,25,25,0,0,1-26.13-6.28,25.07,25.07,0,0,1-5.06-27,25.15,25.15,0,0,1,7.65-10A24.83,24.83,0,0,1,27.65.07m0,1.2a23.52,23.52,0,0,0-8.46,2.26,23.8,23.8,0,0,0,9.9,45.26,23.35,23.35,0,0,0,11-2.49,23.89,23.89,0,0,0,10.25-9.83,23.55,23.55,0,0,0,2.81-13.84A23.8,23.8,0,0,0,27.64,1.27Z" transform="translate(-4.46)"/><path class="cls-2" d="M23.43,3.53a22.26,22.26,0,0,1,12.76.22,1.26,1.26,0,0,1,.46.3,19.43,19.43,0,0,1-2-.47,15.2,15.2,0,0,0-5.12-.25,4.51,4.51,0,0,0-2.86,1.5,1.85,1.85,0,0,0,0,2.33,2,2,0,0,0,2.55.09A7.63,7.63,0,0,1,32,5.64a12.57,12.57,0,0,1,6.57.52,16.74,16.74,0,0,1,6.87,3.71,19.31,19.31,0,0,1,5.92,11.18,22.58,22.58,0,0,1-.66,10.83.34.34,0,0,1-.31.28,16.28,16.28,0,0,0,.64-7.33A3.64,3.64,0,0,0,49,21.91a1.66,1.66,0,0,0-2.19,1.35c-.18,1.11.73,1.91,1.29,2.74,1.21,1.73,1.06,4,.76,6a19.38,19.38,0,0,1-3.09,7.63,18.35,18.35,0,0,1-10.79,7,24,24,0,0,1-11.28,0A3,3,0,0,1,22.27,46a14.45,14.45,0,0,1,2,.41,13.41,13.41,0,0,0,5.71.09,4.1,4.1,0,0,0,2.25-1.37,1.85,1.85,0,0,0-.12-2.33,1.79,1.79,0,0,0-2.08-.32c-.8.44-1.42,1.15-2.23,1.56a8.79,8.79,0,0,1-5.32.38A18.84,18.84,0,0,1,14.37,41,18.41,18.41,0,0,1,8,31.3a23.4,23.4,0,0,1-.11-12.15c.18-.41.11-1.06.58-1.26a17.28,17.28,0,0,0-.71,7A4.5,4.5,0,0,0,9.2,27.71a1.87,1.87,0,0,0,2.2.2A1.71,1.71,0,0,0,12,25.79c-.35-.81-1-1.41-1.44-2.19A8.42,8.42,0,0,1,10,18.4a19.21,19.21,0,0,1,3.07-7.83,18.34,18.34,0,0,1,10.34-7M24,12a7.56,7.56,0,0,0-3,3.38,11.93,11.93,0,0,0-1.16,4.47,1.64,1.64,0,0,1-1.36-1.26,5.67,5.67,0,0,1,.18-2.86c.08-.28-.13-.5-.24-.72a1.46,1.46,0,0,0-1.41.76,4.32,4.32,0,0,0,.37,4.68A3.7,3.7,0,0,0,20,21.67a3.65,3.65,0,0,0,2,2.37,4.31,4.31,0,0,0,3.71-.68,4.37,4.37,0,0,1-.21,1.19,8.37,8.37,0,0,1-1.27.73,27.74,27.74,0,0,0-6,3.82,7.56,7.56,0,0,0-2.48,4.57,4.05,4.05,0,0,0,1.68,3.69,4.87,4.87,0,0,0,4.35.27,7.78,7.78,0,0,0,3.92-3.77c1.28-2.3,1.5-5,1.68-7.55.05-.3,0-.73.35-.86a63.73,63.73,0,0,0,6-3.85c.23.28.46.56.67.85a10.56,10.56,0,0,0-2.74,2.14A8.57,8.57,0,0,0,31.75,36a7,7,0,0,0,6,2,6.75,6.75,0,0,0,4.77-3.25,6.21,6.21,0,0,0-.62-7.18,4.41,4.41,0,0,0-6.34.06,3.64,3.64,0,0,0,0,4.91,1.74,1.74,0,0,0,2.1.39.9.9,0,0,0,.05-1.32,2.47,2.47,0,0,1-.84-1.91A1.78,1.78,0,0,1,39,28.28a2.29,2.29,0,0,1,1.7,1.45,4.67,4.67,0,0,1-.93,4.94,4.23,4.23,0,0,1-5.17.57,5.7,5.7,0,0,1-2.44-4.05,7.55,7.55,0,0,1,1.29-5.54,5.66,5.66,0,0,1,3.06-2.09,8.13,8.13,0,0,0,3.11-.07c.47-.16.94-.69.69-1.21a1.87,1.87,0,0,0-1.43-.81,6.19,6.19,0,0,0-2.38.21,2,2,0,0,1-1-1.27,15.64,15.64,0,0,0,4-4,4.37,4.37,0,0,0,.71-3.29,2.18,2.18,0,0,0-1.63-1.54A3.77,3.77,0,0,0,35,12.88a8.23,8.23,0,0,0-2.1,5.82A5.76,5.76,0,0,1,33,20a39.71,39.71,0,0,1-3.44,2.31,22.19,22.19,0,0,1-2,1.15,7.5,7.5,0,0,1,.24-2,16.52,16.52,0,0,0,1.55-2.08,1.9,1.9,0,0,0,.27-1.79,1,1,0,0,0-1.32-.18,4,4,0,0,0-1.7,2.23c-.24.55-.27,1.24-.79,1.63a3.91,3.91,0,0,1-2.58,1.23,1.23,1.23,0,0,1-1.07-1,10,10,0,0,0,4-3A8.47,8.47,0,0,0,28,14a2.23,2.23,0,0,0-1-2.17A3.28,3.28,0,0,0,24,12Z" transform="translate(-4.46)"/><path class="cls-2" d="M24.9,13.46a.76.76,0,0,1,1.15.29,2.43,2.43,0,0,1-.31,1.6,11.54,11.54,0,0,1-2.81,3.55,3.33,3.33,0,0,1-1,.61A9.21,9.21,0,0,1,23,16a6.4,6.4,0,0,1,1.95-2.58Zm11.81.47c.33-.37.89-.75,1.38-.49s.26,1,0,1.48a12.37,12.37,0,0,1-3.06,3.54A6.87,6.87,0,0,1,36.71,13.93ZM20.54,29.8a20.77,20.77,0,0,1,4.65-3,19.66,19.66,0,0,1-1.31,5.4,5.86,5.86,0,0,1-3,3.39,2.38,2.38,0,0,1-2.42-.14,2.23,2.23,0,0,1-.4-2.25,7.54,7.54,0,0,1,2.45-3.43Z" transform="translate(-4.46)"/></svg>