<svg id="Layer_1" data-name="Layer 1" xmlns="http://www.w3.org/2000/svg" viewBox="0 0 72.01 50"><defs><style>.cls-1{fill:#004990;}.cls-2{fill:#00aeef;}</style></defs><title>NOVO</title><path class="cls-1" d="M25.51,10.82c.32-.22.56-.41.69-.51.62-.5.82-.21.27.69a7.6,7.6,0,0,1-3.3,2.62c-.28.14-.61.28,0,.58a24.39,24.39,0,0,0,3,1.12,34,34,0,0,0,9.54,1.76c3.14,0,6-.42,7.57-.56,1.22-.1,3.86-.33,5.17,2,1.1,2,.87,8.13.92,9.53,0,1,0,9.24,0,10,0,.49,0,.86-.41.9s-1.28,0-1.45,0h-.76c-.54,0-.53.25-.53.4s.12.64-.57.67H43.52c-.33,0-.51-.42-.22-.94,2.79-5,2.59-8.87.94-11a10.86,10.86,0,0,0-.3,1.16c-.21,1.16-.46,1.68-.71,1.88a17.69,17.69,0,0,0-5,7.7c-.14.38-.42.24-.55.4s.24.77-.63.8H34.66c-.4,0-.62-.49-.22-1,.9-1.1,6-5.95,5.77-11a4,4,0,0,0-.37-1.49c-.05,0-.9-.79-2.75.74-.21.17-.24.11-.5,0a7,7,0,0,0-4.16-.48,2.91,2.91,0,0,0-1.79,3.61c.66,2.87,2.12,5.33,2.69,8.22.07.52-.29.39-.44.58s.23.82-.67.82H30c-.43,0-.66-.18-.38-1.07a9.72,9.72,0,0,0,.1-4.37,8.13,8.13,0,0,0-3.79-5.86c-1,.63-2.63,5.58-3.09,8.9-.07.54-.08.66-.09.8-.07.83-.56.53-.7.77s.19.84-.71.84H19.14c-.43,0-.5-.49-.18-1.07,1.37-2.45,3.52-6.23,3.48-10.32A4.54,4.54,0,0,0,21.78,26a29.9,29.9,0,0,1-3-5.2A2.64,2.64,0,0,0,17,19.47c-.5-.16-.93.06-1.49-.26a9.66,9.66,0,0,1-.94-1,1,1,0,0,1-.17-1.31C15,16,15.56,15.51,15.63,15a4.73,4.73,0,0,1,0-.52,8.17,8.17,0,0,1,1.11-1.56c.19-.23,0-.64-.32-1.05a6.52,6.52,0,0,1-1.4-4.22c0-.94.33-.89.56-.25a6.48,6.48,0,0,0,4.23,4.24A6.4,6.4,0,0,0,25.51,10.82Zm21.78,9.5a25.31,25.31,0,0,1-.12,2.77,9.52,9.52,0,0,0-.2,2.62,28.41,28.41,0,0,0,.76,3.58.22.22,0,0,0,.4-.14c0-.14.25-6.95-.35-8.64C47.58,20,47.33,19.91,47.29,20.32Z"/><path class="cls-1" d="M33.89,49.53v-4.6c0-.79,0-2.2-2.69-2.2a6.5,6.5,0,0,0-2.08.32c-.45.14-.6.32-.6.55v5.95c0,.22.07.25.25.25h.66c.18,0,.28,0,.28-.27V44.06c0-.3.5-.61,1.44-.61,1.56,0,1.56,1,1.56,1.63v4.45c0,.24.08.27.29.27h.73C33.88,49.77,33.89,49.65,33.89,49.53Z"/><path class="cls-1" d="M41,46.37a3.57,3.57,0,0,0-1.27-3.15,3.18,3.18,0,0,0-1.74-.49,3.13,3.13,0,0,0-1.74.49,3.58,3.58,0,0,0-1.28,3.15,3.57,3.57,0,0,0,1.28,3.14,3.13,3.13,0,0,0,1.74.49,3.18,3.18,0,0,0,1.74-.49A3.57,3.57,0,0,0,41,46.37Zm-1.23,0a3.48,3.48,0,0,1-.62,2.42,1.78,1.78,0,0,1-2.32,0,3.42,3.42,0,0,1-.63-2.42,3.44,3.44,0,0,1,.63-2.43,1.75,1.75,0,0,1,2.32,0A3.5,3.5,0,0,1,39.72,46.37Z"/><path class="cls-1" d="M45.71,43.42c0-.48-.82-.69-1.73-.69a5.41,5.41,0,0,0-1.52.21c-.46.13-.62.32-.62.55v6.08c0,.22.08.23.27.23h.68c.16,0,.24,0,.24-.23V44a.62.62,0,0,1,.68-.61c.85,0,1,.63,1.44.63A.55.55,0,0,0,45.71,43.42Z"/><path class="cls-1" d="M51.58,49.07V40.69c0-.24-.07-.27-.27-.27h-.65c-.23,0-.26.08-.26.29v2.42A3,3,0,0,0,49,42.77c-2.07,0-3.13,2-3.13,3.6,0,2.43,1.34,3.63,3.37,3.63C50.19,50,51.58,49.51,51.58,49.07Zm-1.18-.39c0,.35-.56.53-1.17.53-1.29,0-2.21-1.08-2.21-2.93,0-1.62.88-2.7,2.1-2.7A1.77,1.77,0,0,1,50.4,44Z"/><path class="cls-1" d="M54.47,41a.68.68,0,0,0-.7-.67A.7.7,0,0,0,53,41a.68.68,0,0,0,.72.69A.7.7,0,0,0,54.47,41Zm-.13,8.59V43.14c0-.21-.05-.25-.27-.25h-.69c-.23,0-.23.08-.23.25v6.42c0,.18,0,.24.2.24h.72C54.27,49.8,54.34,49.79,54.34,49.56Z"/><path class="cls-1" d="M66.18,49.65c0-.06,0-.1-.1-.17l-2.53-3.35h0a8.37,8.37,0,0,0,2.38-2.82A.57.57,0,0,0,66,43c0-.12-.07-.15-.24-.15h-.63c-.24,0-.35,0-.41.2a5.87,5.87,0,0,1-2.36,3,.16.16,0,0,0-.06.08.15.15,0,0,0,0,.07l2.38,3.4c.13.2.18.2.39.2H66S66.18,49.79,66.18,49.65Zm-4.07,0v-9c0-.19-.09-.19-.26-.19h-.7c-.15,0-.23,0-.23.22v9c0,.18,0,.21.23.21h.7C62,49.8,62.11,49.8,62.11,49.6Z"/><path class="cls-1" d="M60,47.94c0-2.25-3.28-1.9-3.28-3.38a1.06,1.06,0,0,1,1.15-1c.77,0,1,.51,1.37.51a.46.46,0,0,0,.48-.47c0-.5-.86-.8-1.79-.8-1.21,0-2.27.65-2.27,1.89s.81,1.65,1.78,2.06c.78.32,1.5.61,1.5,1.35a1.25,1.25,0,0,1-1.38,1.17c-.93,0-1.2-.69-1.65-.69-.23,0-.51.09-.51.44,0,.54,1.07,1,2.15,1A2.19,2.19,0,0,0,60,47.94Z"/><path class="cls-1" d="M5.37,49.53v-4.6c0-.79,0-2.2-2.69-2.2a6.5,6.5,0,0,0-2.08.32c-.46.14-.6.32-.6.55v5.95c0,.22.06.25.25.25H.9c.19,0,.29,0,.29-.27V44.06c0-.3.5-.61,1.43-.61,1.57,0,1.57,1,1.57,1.63v4.45c0,.24.07.27.29.27h.73C5.36,49.77,5.37,49.65,5.37,49.53Z"/><path class="cls-1" d="M12.43,46.37a3.58,3.58,0,0,0-1.28-3.15,3.13,3.13,0,0,0-1.74-.49,3.12,3.12,0,0,0-1.73.49A3.58,3.58,0,0,0,6.4,46.37a3.57,3.57,0,0,0,1.28,3.14A3.12,3.12,0,0,0,9.41,50a3.13,3.13,0,0,0,1.74-.49A3.57,3.57,0,0,0,12.43,46.37Zm-1.22,0a3.47,3.47,0,0,1-.63,2.42,1.52,1.52,0,0,1-1.17.43,1.52,1.52,0,0,1-1.16-.43,3.48,3.48,0,0,1-.62-2.42,3.5,3.5,0,0,1,.62-2.43,1.53,1.53,0,0,1,1.16-.44,1.53,1.53,0,0,1,1.17.44A3.49,3.49,0,0,1,11.21,46.37Z"/><path class="cls-1" d="M24.62,46.37a3.58,3.58,0,0,0-1.28-3.15,3.32,3.32,0,0,0-3.47,0,3.58,3.58,0,0,0-1.28,3.15,3.57,3.57,0,0,0,1.28,3.14,3.32,3.32,0,0,0,3.47,0A3.57,3.57,0,0,0,24.62,46.37Zm-1.23,0a3.42,3.42,0,0,1-.63,2.42,1.78,1.78,0,0,1-2.32,0,3.48,3.48,0,0,1-.62-2.42,3.5,3.5,0,0,1,.62-2.43,1.75,1.75,0,0,1,2.32,0A3.44,3.44,0,0,1,23.39,46.37Z"/><path class="cls-1" d="M18.48,43c0-.13-.11-.13-.18-.13h-.66c-.1,0-.12,0-.16.19l-1.74,5.08-1.8-5.06c-.06-.18-.09-.21-.29-.21h-.81c-.06,0-.19,0-.19.16a.54.54,0,0,0,0,.19l2.42,6.35c.06.15.09.2.19.21h.53c.15,0,.18,0,.25-.2l2.33-6.36A.58.58,0,0,0,18.48,43Z"/><path class="cls-1" d="M16.56,5.39A5.4,5.4,0,1,1,22,10.79,5.4,5.4,0,0,1,16.56,5.39Z"/><path class="cls-1" d="M68,36h.63c.34,0,.88,0,.88.52s-.57.52-.84.52H68Zm-.56,3H68V37.52h.33c.44,0,.61.17,1,.92l.31.54h.68l-.42-.67c-.43-.68-.6-.79-.8-.86v0a1,1,0,0,0,1-1,.88.88,0,0,0-.33-.69,1.74,1.74,0,0,0-1.14-.25H67.4Zm1.41-5A3.21,3.21,0,1,0,72,37.21,3.21,3.21,0,0,0,68.81,34Zm0,.54a2.68,2.68,0,1,1-2.68,2.67A2.67,2.67,0,0,1,68.8,34.54Z"/><path class="cls-2" d="M18.53,4.76a3.64,3.64,0,1,1,3.64,3.63A3.63,3.63,0,0,1,18.53,4.76Z"/><path class="cls-2" d="M23.27,15.42c-.47-.28-1.44-.78-2.39-1.34-1.74-1-2.61-1.54-3.27-1a4.91,4.91,0,0,0-1.29,1.57c-.09.26-.05.89-.28,1.18s-.43.62-.79,1.06c-.49.6-.13.79.39,1.43s1.63,0,2.9,1a7.46,7.46,0,0,1,1.69,2.19c.28.43.44.18.67-.41a30.87,30.87,0,0,1,2.23-4.39C23.4,16.25,23.78,15.74,23.27,15.42Zm-5.94-.24c-.52-.88,1.37-1.13,1.46-.86S17.85,16.06,17.33,15.18Z"/><path class="cls-2" d="M32.66,18.62c-.07-.5-.16-.85.66-.81,1.09.05,1.62.11,2.29.1s1.75,0,2.11-.06a1.09,1.09,0,0,1,1.27.64c.2.49.93,2.51-.28,3.07a8.17,8.17,0,0,1-4.89.49c-.41-.12-1.08-.28-1.07-1.11A16.53,16.53,0,0,0,32.66,18.62Z"/><path class="cls-2" d="M42.08,18.11a5.1,5.1,0,0,1,1.06,2.3c.08.49.74.3.82-.16a3.38,3.38,0,0,0-.59-2.39,1.1,1.1,0,0,0-1.08-.31C41.86,17.64,41.75,17.74,42.08,18.11Z"/><path class="cls-2" d="M32.89,25.3c-.34.11-3.13.9-3.18,3.78,0,.85-.26.77-.66.47a44.73,44.73,0,0,0-4.7-3.19,5.87,5.87,0,0,1-2-1.81,4.25,4.25,0,0,1-.38-4,17.64,17.64,0,0,1,1.63-3.25c.9-1.34.81-1.35,2.55-.79,1.57.5,1.49.7,1.51,1.47a11.17,11.17,0,0,1-.31,2.85.85.85,0,0,0,.81,1c2.46.07,2.51-3.34,2.51-3.35.05-.8-.25-.95.54-.88.59.06.69.56.78,1.46,0,.33,0,1.62,0,2a1.52,1.52,0,0,0,1.25,1.59,9.24,9.24,0,0,0,5.91-.56,1.7,1.7,0,0,0,1-1.81,8.53,8.53,0,0,0-.4-1.95c-.15-.36-.12-.62.19-.66,1.5-.21,2.18,1.36,2.69,3.26.17.62,1,.58,1.46.16a2.18,2.18,0,0,0,.36-2.29,3.67,3.67,0,0,0-.35-.91c-.11-.19-.14-.35.27-.35,2.74,0,2.05,5.06,2,5.49A22.07,22.07,0,0,1,46,25.32c-.49,2.23-1.64,1.34-2,1.11A9,9,0,0,0,39.83,25C36.1,24.67,34,24.93,32.89,25.3Z"/><path class="cls-2" d="M28.45,17.69a11.53,11.53,0,0,1-.29,3.06c0,.32.4.41.72.23.56-.31,1-1.38,1-3,0-.4,0-.58-.67-.69S28.41,17.17,28.45,17.69Z"/></svg>