<svg width="162" height="37" viewBox="0 0 162 37" fill="none" xmlns="http://www.w3.org/2000/svg">
<path d="M9.15088 29.527L9.20819 5.81176L15.1227 5.80029V9.73181C15.1227 9.73181 18.7447 4.05805 26.7453 6.40779C26.7453 6.40779 30.8946 7.6457 31.1353 12.3452L31.1009 29.4811L24.7394 29.5155L24.7623 14.7408C24.7623 14.7408 24.9572 10.3049 20.2462 10.5342C20.2462 10.5342 15.7072 11.1187 15.6958 16.334C15.6843 21.4461 15.6843 29.527 15.6843 29.527H9.15088Z" fill="white"/>
<path d="M31.6018 5.73114L44.279 36.9999L54.9158 10.7172H76.4418V5.67383H50.6978L44.2216 21.9501L37.8028 5.75406L31.6018 5.73114Z" fill="white"/>
<path d="M58.022 15.4509L56.2568 19.7836H76.4417V15.4395L58.022 15.4509Z" fill="#CC3244"/>
<path d="M54.3154 24.4608H80.8503V5.67432H86.8106V9.44537C86.8106 9.44537 92.3125 3.55382 98.8803 6.52252C99.9577 7.00393 102.789 9.17028 102.812 12.1161C102.823 13.4915 102.789 15.2796 102.789 15.2796L102.766 29.4124L96.542 29.4239C96.542 29.4239 96.4847 15.7037 96.4847 15.4172C96.4847 15.1191 96.5076 8.8608 90.5817 10.6604C90.5817 10.6604 87.5442 11.5086 87.2118 15.3255V29.4698H52.2637L54.3154 24.4608Z" fill="white"/>
<path d="M126.277 11.3818C126.277 11.3818 125.842 5.23807 115.446 5.24953C111.743 5.24953 105.497 6.72815 105.497 12.3675C105.497 14.4422 106.173 16.9409 110.162 18.4425C110.162 18.4425 115.331 19.8409 118.392 20.5515C118.392 20.5515 120.799 21.0673 120.695 22.8096C120.695 22.8096 120.558 24.8269 116.661 24.9874C116.661 24.9874 111.594 25.6407 110.838 21.4685L105.772 22.225C105.772 22.225 106.459 29.7327 116.661 29.7098C119.618 29.7098 127.045 28.5292 127.08 21.6748C127.091 19.8638 126.53 17.7662 123.916 16.4366C122.369 15.6342 119.584 15.3018 115.835 14.3619C115.835 14.3619 111.514 13.5137 111.457 11.8173C111.423 10.8316 112.798 9.86878 115.664 9.77708C117.669 9.70831 120.145 10.545 120.386 12.5051L126.277 11.3818Z" fill="white"/>
<path d="M160.389 11.3933C160.389 11.3933 159.954 5.23813 149.569 5.26105C145.878 5.27251 139.62 6.75113 139.62 12.3791C139.62 14.4537 140.353 16.8378 144.331 18.3508C144.331 18.3508 149.454 19.8638 152.515 20.586C152.515 20.586 154.922 21.1018 154.818 22.844C154.818 22.844 154.681 24.8613 150.784 25.0218C150.784 25.0218 146.119 25.3198 145.454 21.4342L139.883 22.2594C139.883 22.2594 140.571 29.7671 150.772 29.7557C153.718 29.7442 161.157 28.5636 161.18 21.7207C161.18 19.9097 160.63 17.8121 158.016 16.4825C156.469 15.6802 153.672 15.3478 149.936 14.4079C149.936 14.4079 145.614 13.5597 145.557 11.8633C145.523 10.8775 146.898 9.91469 149.764 9.81153C151.77 9.74275 154.245 10.591 154.486 12.551L160.389 11.3933Z" fill="white"/>
<path d="M136.81 5.55933H130.311V29.4923H136.81V5.55933Z" fill="white"/>
<path d="M6.49904 0H0V29.5265H6.49904V0Z" fill="white"/>
</svg>
