<svg width="175" height="40" viewBox="0 0 175 40" fill="none" xmlns="http://www.w3.org/2000/svg">
<path d="M9.89062 31.9209L9.95258 6.2829L16.3466 6.27051V10.5208C16.3466 10.5208 20.2623 4.387 28.9116 6.92726C28.9116 6.92726 33.3973 8.26554 33.6575 13.346L33.6203 31.8713L26.7431 31.9085L26.7678 15.9359C26.7678 15.9359 26.9785 11.1404 21.8856 11.3882C21.8856 11.3882 16.9786 12.0202 16.9662 17.6583C16.9538 23.1849 16.9538 31.9209 16.9538 31.9209H9.89062Z" fill="#15153E"/>
<path d="M34.1641 6.19624L47.8691 40.0002L59.3684 11.5865H82.6396V6.13428H54.8083L47.8071 23.7302L40.8679 6.22102L34.1641 6.19624Z" fill="#15153E"/>
<path d="M62.7247 16.7038L60.8164 21.3878H82.6378V16.6914L62.7247 16.7038Z" fill="#CC3244"/>
<path d="M58.722 26.4439H87.4083V6.13428H93.8519V10.2111C93.8519 10.2111 99.7998 3.84185 106.9 7.05125C108.065 7.57169 111.126 9.91368 111.15 13.0983C111.163 14.5853 111.126 16.5183 111.126 16.5183L111.101 31.7971L104.372 31.8094C104.372 31.8094 104.31 16.9768 104.31 16.667C104.31 16.3449 104.335 9.57911 97.9287 11.5246C97.9287 11.5246 94.6449 12.4415 94.2856 16.5679V31.859H56.5039L58.722 26.4439Z" fill="#15153E"/>
<path d="M136.517 12.3048C136.517 12.3048 136.046 5.66292 124.807 5.67531C120.804 5.67531 114.051 7.27381 114.051 13.3704C114.051 15.6133 114.782 18.3146 119.094 19.9379C119.094 19.9379 124.683 21.4497 127.991 22.218C127.991 22.218 130.593 22.7756 130.482 24.6591C130.482 24.6591 130.333 26.84 126.12 27.0135C126.12 27.0135 120.643 27.7198 119.825 23.2093L114.348 24.0271C114.348 24.0271 115.092 32.1435 126.12 32.1188C129.317 32.1188 137.347 30.8424 137.384 23.4323C137.396 21.4745 136.789 19.2068 133.964 17.7694C132.291 16.902 129.28 16.5426 125.228 15.5265C125.228 15.5265 120.556 14.6096 120.494 12.7756C120.457 11.71 121.944 10.6691 125.042 10.5699C127.211 10.4956 129.887 11.4002 130.147 13.5191L136.517 12.3048Z" fill="#15153E"/>
<path d="M173.393 12.317C173.393 12.317 172.922 5.66279 161.695 5.68757C157.705 5.69996 150.939 7.29846 150.939 13.3827C150.939 15.6255 151.733 18.203 156.032 19.8387C156.032 19.8387 161.571 21.4743 164.88 22.255C164.88 22.255 167.482 22.8126 167.371 24.6961C167.371 24.6961 167.222 26.877 163.009 27.0505C163.009 27.0505 157.965 27.3727 157.247 23.172L151.224 24.0641C151.224 24.0641 151.968 32.1806 162.996 32.1682C166.181 32.1558 174.223 30.8795 174.248 23.4817C174.248 21.5239 173.653 19.2563 170.828 17.8188C169.155 16.9514 166.131 16.5921 162.092 15.576C162.092 15.576 157.42 14.659 157.358 12.8251C157.321 11.7594 158.808 10.7185 161.906 10.607C164.074 10.5326 166.751 11.4496 167.011 13.5686L173.393 12.317Z" fill="#15153E"/>
<path d="M147.905 6.01025H140.879V31.8837H147.905V6.01025Z" fill="#15153E"/>
<path d="M7.02598 0H0V31.9205H7.02598V0Z" fill="#15153E"/>
</svg>
