<svg width="32" height="32" viewBox="0 0 32 32" fill="none" xmlns="http://www.w3.org/2000/svg">
<path fill-rule="evenodd" clip-rule="evenodd" d="M16 32C24.8359 32 32 24.8364 32 16C32 7.16357 24.8359 0 16 0C7.16406 0 0 7.16357 0 16C0 24.8364 7.16406 32 16 32ZM8.24609 9.21289C8.34961 9.0083 8.47656 8.81445 8.61523 8.66504C8.95508 8.29932 9.61133 8 10.0781 8C10.543 8 11.1875 8.25732 11.5078 8.57129C11.8301 8.88574 12.0938 9.52881 12.0938 10C12.0938 10.4712 11.8301 11.1143 11.5078 11.4287C11.1875 11.7427 10.5723 12 10.1426 12C9.71289 12 9.05469 11.729 8.67969 11.3979C8.30664 11.0674 8 10.4663 8 10.0635C8 9.8252 8.09766 9.50781 8.24609 9.21289ZM8.37305 24V18.5454V13.0908H10.0469H11.7207V18.5454V24H10.0469H8.37305ZM13.582 24V18.5454V13.0908H15.2559C16.5234 13.0908 16.9297 13.2285 16.9297 13.6572C16.9297 14.1694 17.0078 14.1694 17.7578 13.6572C18.2188 13.3408 19.3281 13.0962 20.2695 13.1025C21.1953 13.1089 22.2188 13.3135 22.5449 13.5571C22.8691 13.8008 23.3301 14.3574 23.5664 14.7939C23.7188 15.0747 23.8438 15.9033 23.9199 17.0537C23.9707 17.8408 24 18.7783 24 19.7939V24H22.3262H20.6504V20.6147C20.6504 18.4033 20.4824 17.0049 20.166 16.5806C19.9609 16.3071 19.6426 16.1255 19.2832 16.0635C19.1211 16.0356 18.9512 16.0322 18.7793 16.0562C18.6504 16.0742 18.5137 16.1182 18.3789 16.1816C17.9883 16.3652 17.6055 16.7139 17.4102 17.0908C17.1484 17.5996 16.9395 19.3213 16.9355 21L16.9297 24H15.2559H13.582Z" fill="#EBEBEB"/>
</svg>
