<?xml version="1.0" encoding="utf-8"?>
<!-- Generator: Adobe Illustrator 27.2.0, SVG Export Plug-In . SVG Version: 6.00 Build 0)  -->
<svg version="1.1" id="Layer_1" xmlns="http://www.w3.org/2000/svg" xmlns:xlink="http://www.w3.org/1999/xlink" x="0px" y="0px"
	 viewBox="0 0 64 64" style="enable-background:new 0 0 64 64;" xml:space="preserve">
<style type="text/css">
	.st0{opacity:0.15;fill:#2F2F7F;}
	.st1{fill:#2F2F7F;}
	.st2{opacity:0.2;fill:#FFFFFF;}
	.st3{fill:#FFFFFF;}
</style>
<path class="st1" d="M6.5,56c-1.2,0-2.25-0.45-3.15-1.35C2.45,53.75,2,52.7,2,51.5v-39c0-1.2,0.45-2.25,1.35-3.15
	C4.25,8.45,5.3,8,6.5,8h51c1.2,0,2.25,0.45,3.15,1.35c0.9,0.9,1.35,1.95,1.35,3.15v39c0,1.2-0.45,2.25-1.35,3.15
	C59.75,55.55,58.7,56,57.5,56H6.5z M31.8,34.17L7.06,17.94c-0.24-0.16-0.56,0.01-0.56,0.3v32.9c0,0.2,0.16,0.36,0.36,0.36h50.28
	c0.2,0,0.36-0.16,0.36-0.36v-32.9c0-0.29-0.32-0.46-0.56-0.3L32.2,34.17C32.08,34.25,31.92,34.25,31.8,34.17z M32.2,28.72
	l23.98-15.56c0.3-0.19,0.16-0.66-0.2-0.66H8.09c-0.36,0-0.5,0.47-0.2,0.66L31.8,28.72C31.92,28.8,32.08,28.8,32.2,28.72z M6.5,16.62
	V12.5v39V16.62z"/>
</svg>
