<svg id="Layer_1" data-name="Layer 1" xmlns="http://www.w3.org/2000/svg" viewBox="0 0 169.87 49.94"><defs><style>.cls-1,.cls-4{fill:#808184;}.cls-1,.cls-2,.cls-3{fill-rule:evenodd;}.cls-2{fill:#93989b;}.cls-3{fill:#7a133e;}</style></defs><title>QATAR</title><path class="cls-1" d="M131.6,7.17l12.84-.77c-6.78-.22-10.8-.22-12.07-.09l-1.9.41c-.22.22.18.36,1.13.45Z" transform="translate(0 -0.03)"/><path class="cls-1" d="M128.76,10.38l21.11-.45L129.43,9.2c-2.71-.18-4.2,0-4.43.5-.4.68.91.9,3.76.68Z" transform="translate(0 -0.03)"/><path class="cls-1" d="M121.3,14.45l31.87-1.13L124.46,13c-2.17,0-3.3.22-3.3.67l.14.82Z" transform="translate(0 -0.03)"/><path class="cls-1" d="M123.42,18.69l32-1.44-34.68-.54c-.9.09-1.4.31-1.49.76-.13,1,1.22,1.36,4.16,1.22Z" transform="translate(0 -0.03)"/><path class="cls-1" d="M118.81,22.36l37.88-.95-35-1c-2.26,0-3.44.36-3.62,1.22,0,.37.23.68.77.73Z" transform="translate(0 -0.03)"/><path class="cls-1" d="M118.49,26.2l12-.14,1.68-1.9h-12c-1.81,0-2.63.41-2.4,1.22a.79.79,0,0,0,.72.82Z" transform="translate(0 -0.03)"/><path class="cls-1" d="M121.16,30.22l7.6-.54,1-1.72-8.91.14c-1.71,0-2.57.36-2.57,1s.22.86.63.91l2.26.18Z" transform="translate(0 -0.03)"/><path class="cls-1" d="M122.34,33.84l19.3-.77-1.36-1.36-18.62.14-1.94.22a.78.78,0,0,0-.23.86c.13.82,1.13,1.13,2.85.91Z" transform="translate(0 -0.03)"/><path class="cls-1" d="M144.22,36.23,125,36.09c-2.35,0-3.39.28-3.34.95.22.86,1.54,1.09,4,.86l19.71-.45-1.17-1.22Z" transform="translate(0 -0.03)"/><path class="cls-2" d="M146.61,40.16,126,40c-.45,0-.67.18-.67.54,0,.68,1.44,1,4.29.82l19.08-.68-2-.5Z" transform="translate(0 -0.03)"/><path class="cls-2" d="M133.59,44.14l11.31-.36-11.85-.45c-1.58-.23-2.4-.09-2.4.45l2.94.36Z" transform="translate(0 -0.03)"/><path class="cls-3" d="M165.74,1.79c-4.12,1.77-12.12,6.42-24,14.1A120.2,120.2,0,0,1,158.68,8L168,4.91l1.81.14c.36.22-.18.54-1.45.9A122.94,122.94,0,0,0,156.24,11c-6.78,3.08-10.67,5.25-11.8,6.6l7.83.18a5.56,5.56,0,0,1-4.07,2.26l-1.5.05c1.72,2.8,4.53,4.38,8.37,4.61l2.62.13.14,2-11,1.08,10.62.68c.14,1.58.1,2.39-.13,2.39H146.61l9.86,1.45L155.88,35l-8.9.68,7.91.86L153,39.08l-4.83.63,3.75.81-4.12,2.85a75.6,75.6,0,0,1-6.55-7.28l-2.89-4-4,.86c3.48-2.48,5.33-4.38,5.65-5.51a23.57,23.57,0,0,0-.45-4.43l-1.45,1.49a11,11,0,0,0-.95-4.07l-.54,1.67-2.4,2.08L136,24c-1,5.78-3.39,9.49-7.1,11l-2.17-2.26,1.49-1.36-2.26.68-.45-.68a55.29,55.29,0,0,1,5.29-7.72l6.55-6A102.65,102.65,0,0,1,147.65,10C156,5,162.08,1.75,165.74.39c1.44-.54,2-.45,1.67.14l-1.67,1.26Z" transform="translate(0 -0.03)"/><path class="cls-3" d="M104.16,45.76V44.58c0-.61.8-1.25,2.37-1.89l.86-.43v4.41h1.86V41.85l-.27-.11a.31.31,0,0,1,.12-.34c.18-.16.68-.5,1.52-1.07v7.59H89.24a1.88,1.88,0,0,1-.84,1.66L87.19,50A1.86,1.86,0,0,1,86,49.4c-.23-.2-.18-.32.07-.34a1.31,1.31,0,0,0,1.36-.2,1.05,1.05,0,0,0,.5-.94L88,44.19l-.36-.13c-.1-.09-.05-.21.13-.32l1.48-1.09,0,4H91V42c-.41-.19-.41-.46,0-.76l1.41-1V44A2.19,2.19,0,0,1,94,43.44H99.2a2.56,2.56,0,0,1,1.59.57,2.09,2.09,0,0,1,.75,1.71v1h4.54v-.91ZM80.59,41v5.66h4.17V45.08c-.46-.11-.5-.34-.12-.68l1.44-1v4.52H76.39l.18-2.13c0-.41.41-.94,1.25-1.51a8.82,8.82,0,0,1,1.36-.79l.07-.55c-.34-.11-.45-.22-.34-.34L80.59,41Zm25.48,3.05c-.61.18-.91.41-.91.75h.91v-.75Zm-28.3,2.61h1.46V44.88l-1.12.56a1.12,1.12,0,0,0-.34,1.23Zm-.36-6.48c.57,0,.82.23.82.64s-.25.52-.82.52-.66-.18-.66-.52a.59.59,0,0,1,.66-.64Zm1.77,0c.57,0,.85.23.85.64s-.28.52-.85.52c-.41,0-.63-.18-.63-.52a.57.57,0,0,1,.63-.64Zm2.73,8.19c.53,0,.8.22.8.63s-.27.53-.8.53-.68-.19-.68-.53.23-.63.68-.63Zm1.87,0c.52,0,.8.22.8.63s-.28.53-.8.53-.68-.19-.68-.53.22-.63.68-.63Zm20.81-8.3c.57,0,.82.22.82.63s-.25.53-.82.53-.66-.18-.66-.53a.58.58,0,0,1,.66-.63Zm1.85,0c.54,0,.79.22.79.63s-.25.53-.79.53-.64-.18-.64-.53a.57.57,0,0,1,.64-.63Zm-6.28,6.59H92.42V45.35a1.13,1.13,0,0,1,1-.59h5.69c.54,0,.84.12,1,.39l.07.64,0,.88Zm12.92-6.3v7.55h-1.41V41.85c-.14,0-.23,0-.25-.11l.11-.34,1.55-1Z" transform="translate(0 -0.03)"/><path class="cls-3" d="M46.21,35h5.27L40.94,11.41H39L28.7,35h3.06l3-7.33h8.47ZM35.63,25.51,39,17.28l3.36,8.23Z" transform="translate(0 -0.03)"/><path class="cls-3" d="M85.05,35h5.27L79.78,11.41h-2L67.54,35H70.6l3-7.33h8.47ZM74.47,25.51l3.36-8.23,3.35,8.23Z" transform="translate(0 -0.03)"/><polygon class="cls-3" points="50.69 11.38 68.54 11.38 68.54 14.24 62.17 14.24 62.17 34.95 57.1 34.95 57.1 14.24 50.69 14.24 50.69 11.38"/><path class="cls-3" d="M26.55,23.51c0-7-5.95-12.7-13.28-12.7S0,16.5,0,23.51,5.94,36.2,13.27,36.2a14,14,0,0,0,2-.15l7,6.36,3.77-3-7.46-4.27A12.67,12.67,0,0,0,26.55,23.51ZM13.27,33.93c-4.86,0-8.81-4.67-8.81-10.42s4-10.43,8.81-10.43,8.82,4.67,8.82,10.43S18.14,33.93,13.27,33.93Z" transform="translate(0 -0.03)"/><path class="cls-3" d="M104.22,24a7.51,7.51,0,0,0,6-7.45c0-4.64-5.49-5.14-5.49-5.14H94.28V35H98.4V24.5h1.4l6.78,10.24h5.82ZM98.4,22.55V12.66h5.32s2.86,1.61,2.86,4.57-1.26,5.32-3.06,5.32Z" transform="translate(0 -0.03)"/><path class="cls-4" d="M30.28,39.63h1.14l3,7.7H33.29L32.45,45H29.2l-.87,2.32h-1Zm-.76,4.52h2.61l-1.28-3.59h0Z" transform="translate(0 -0.03)"/><path class="cls-4" d="M35.22,39.63h1v7.7h-1Z" transform="translate(0 -0.03)"/><path class="cls-4" d="M38,39.63h3.62c1.45,0,2.34.79,2.34,2a1.86,1.86,0,0,1-1.33,2v0c.89.17,1.08.83,1.15,1.58a4,4,0,0,0,.45,2.13H43.06c-.29-.32-.13-1.15-.28-1.9S42.49,44,41.5,44H39v3.29H38Zm3.16,3.55c1,0,1.78-.25,1.78-1.37a1.22,1.22,0,0,0-1.37-1.32H39v2.69Z" transform="translate(0 -0.03)"/><path class="cls-4" d="M52.12,47.33H51.05l-1.76-6.47h0l-1.78,6.47H46.43l-2-7.7h1L47,46h0l1.72-6.4h1.11L51.57,46h0l1.56-6.4h1Z" transform="translate(0 -0.03)"/><path class="cls-4" d="M57,39.63h1.13l3,7.7H60L59.15,45H55.89L55,47.33H54Zm-.76,4.52h2.6l-1.28-3.59h0Z" transform="translate(0 -0.03)"/><path class="cls-4" d="M64.26,44.18v3.15h-1V44.18l-3-4.55h1.22l2.3,3.66L66,39.63H67.2Z" transform="translate(0 -0.03)"/><path class="cls-4" d="M72.52,41.88a1.68,1.68,0,0,0-1.91-1.57c-.86,0-1.73.31-1.73,1.31s1.23,1.09,2.47,1.37,2.46.71,2.46,2.22-1.6,2.3-3,2.3c-1.72,0-3.18-.84-3.18-2.72h1c0,1.3,1.08,1.86,2.25,1.86.92,0,2-.3,2-1.41s-1.23-1.23-2.46-1.5-2.47-.63-2.47-2c0-1.56,1.39-2.25,2.79-2.25,1.58,0,2.77.74,2.84,2.43Z" transform="translate(0 -0.03)"/></svg>