<svg id="Layer_1" data-name="Layer 1" xmlns="http://www.w3.org/2000/svg" xmlns:xlink="http://www.w3.org/1999/xlink" viewBox="0 0 39.07 39.07"><defs><style>.cls-1{fill:none;}.cls-2{clip-path:url(#clip-path);}.cls-3{fill:#8d7c6b;}</style><clipPath id="clip-path" transform="translate(-6.02 -6.44)"><polygon class="cls-1" points="0 50 50.69 50 50.69 0 0 0 0 50 0 50"/></clipPath></defs><title>Swift</title><g class="cls-2"><path class="cls-3" d="M38.63,39.15l-.11.11A19,19,0,0,1,28,44.41l-.41.05.44-.29a20.31,20.31,0,0,0,4.92-5l0,0Zm-6.83,0-.07.1A20.83,20.83,0,0,1,27,43.8l-1,.67V39.15Zm-6.69,0v5.32l-1-.67a20.83,20.83,0,0,1-4.72-4.55l-.07-.1Zm-7,0,0,0a20.92,20.92,0,0,0,4.93,5l.36.23-.38-.05a18.46,18.46,0,0,1-10.5-5.11l-.11-.11Zm24.74-6.5a.78.78,0,0,0,0,.09,18.75,18.75,0,0,1-3.33,5.45l0,0h-6l.06-.1a17.5,17.5,0,0,0,2.11-5.41.12.12,0,0,0,0-.05Zm-8.11,0,0,.08a16.34,16.34,0,0,1-2.29,5.45l0,0H26V32.65Zm-9.67,0v5.56H18.65l0,0a16.34,16.34,0,0,1-2.29-5.45l0-.08Zm-9.74,0a.12.12,0,0,0,0,.05,17.5,17.5,0,0,0,2.11,5.41l.06.1h-6l0,0a18.51,18.51,0,0,1-3.32-5.45l0-.09ZM43.22,20.19l0,0A18.77,18.77,0,0,1,44.15,26a19,19,0,0,1-.92,5.76l0,0H7.88a.1.1,0,0,0,0,0,18.49,18.49,0,0,1,0-11.49v0ZM39.51,13.7l0,0a18.62,18.62,0,0,1,3.33,5.45.78.78,0,0,0,0,.09H35.73a.12.12,0,0,0,0-.05,17.65,17.65,0,0,0-2.11-5.42l-.06-.09Zm-7.06,0,0,0a16.34,16.34,0,0,1,2.29,5.45l0,.08H26V13.7Zm-7.34,0v5.56H16.32l0-.08a16.34,16.34,0,0,1,2.29-5.45l0,0Zm-7.56,0-.06.09a17.65,17.65,0,0,0-2.11,5.42.12.12,0,0,0,0,.05H8.21l0-.09a18.38,18.38,0,0,1,3.32-5.45l0,0Zm15.38-1a21.06,21.06,0,0,0-4.92-5l-.37-.24.38.06a18.43,18.43,0,0,1,10.5,5.11l.11.11H33l0,0M26,7.43l1,.68a20.83,20.83,0,0,1,4.72,4.55l.07.1H26Zm-6.62,5.23a20.83,20.83,0,0,1,4.72-4.55l1-.68v5.33H19.3l.07-.1m-6.79,0A19,19,0,0,1,23.12,7.5l.41,0-.43.28a20.4,20.4,0,0,0-4.93,5l0,0H12.47l.11-.11M25.42,6.44a19.53,19.53,0,1,0,.26,0Z" transform="translate(-6.02 -6.44)"/><path class="cls-3" d="M29.3,22c-.4.13-.51.63-.77,1.48l-1.42,4.94c-.27,1-.27,1.27-.11,1.49V30H24.62V29.9c.38-.19.45-.46.75-1.42l1.42-4.92c.27-1,.34-1.31.13-1.57V21.9H29.3Z" transform="translate(-6.02 -6.44)"/><path class="cls-3" d="M9.07,27.93a1.71,1.71,0,0,0,2.08,1.65,1.4,1.4,0,0,0,1.4-1.42,1.91,1.91,0,0,0-1-1.53l-.38-.25c-.81-.57-1.53-1.17-1.52-2.19,0-1.46,1.19-2.37,2.77-2.44a5.28,5.28,0,0,1,1.49.16l.68.2-.38,1.42h-.1c-.21-.87-.58-1.35-1.78-1.25a1.31,1.31,0,0,0-1.24,1.32c0,.6.35,1,1,1.42l.39.24c.88.58,1.64,1.18,1.63,2.26,0,1.61-1.27,2.62-3.13,2.63a4.16,4.16,0,0,1-2.43-.69c0-.15.22-.84.4-1.52Z" transform="translate(-6.02 -6.44)"/><path class="cls-3" d="M36.28,21.9c-.11.32-.31.93-.46,1.42h-.1c-.38-1-1.29-.86-1.94-.86h-.07c-.45,0-.57.11-.69.52l-.72,2.63h.24c1.1,0,1.87.1,2.19-.33h.09l-.42,1.48h-.09c-.21-.66-1-.59-2-.59h-.23l-.65,2.23c-.24.84-.32,1.27-.11,1.49V30H29v-.1c.41-.16.5-.54.78-1.47l1.43-5c.26-.9.31-1.22.11-1.48V21.9Z" transform="translate(-6.02 -6.44)"/><path class="cls-3" d="M42.8,21.9c-.16.46-.3.91-.47,1.42h-.1c-.36-1-1.35-.86-1.78-.86h-.1l-1.72,6c-.23.88-.32,1.25-.1,1.47V30H36.2v-.1c.4-.19.49-.59.75-1.49l1.73-5.94h-.17a2.17,2.17,0,0,0-2.1.86H36.3c.15-.41.31-.91.49-1.42Z" transform="translate(-6.02 -6.44)"/><path class="cls-3" d="M25.78,22a3.93,3.93,0,0,0-1,1.43c-.7,1.31-3.17,6.21-3.36,6.57h-.89l-.5-5.11h0L17.26,30h-.74l-.68-6.52c-.09-.77-.13-1.27-.38-1.49V21.9h2.3V22c-.28.3-.35.63-.28,1.39l.38,3.88h0L20.78,22h.64l.51,5.3h0l2.05-4c.49-1,.3-1.16.23-1.28v-.11h1.54Z" transform="translate(-6.02 -6.44)"/></g></svg>