<svg id="Layer_1" data-name="Layer 1" xmlns="http://www.w3.org/2000/svg" viewBox="0 0 51.88 50"><defs><style>.cls-1{fill:#2d86c7;}</style></defs><title>UNITED</title><path class="cls-1" d="M4,45.51v2.87a1.74,1.74,0,0,1-.21.86,1.38,1.38,0,0,1-.61.56,2.12,2.12,0,0,1-1,.2A1.79,1.79,0,0,1,1,49.56a1.59,1.59,0,0,1-.46-1.19V45.51h.73v2.8a1.15,1.15,0,0,0,.25.81,1,1,0,0,0,.78.26c.69,0,1-.36,1-1.07v-2.8Z"/><path class="cls-1" d="M8.82,49.94H7.93L5.76,46.41h0l0,.2c0,.37,0,.72,0,1v2.3H5.13V45.51H6L8.18,49h0s0-.21,0-.5,0-.52,0-.69V45.51h.66Z"/><path class="cls-1" d="M10,49.94V45.51h.72v4.43Z"/><path class="cls-1" d="M13.41,49.94h-.72V46.13h-1.3v-.62h3.32v.62h-1.3Z"/><path class="cls-1" d="M17.89,49.94h-2.5V45.51h2.5v.62H16.11v1.2h1.67v.61H16.11v1.38h1.78Z"/><path class="cls-1" d="M22.45,47.68a2.21,2.21,0,0,1-.61,1.68,2.42,2.42,0,0,1-1.75.58H18.85V45.51h1.37a2.26,2.26,0,0,1,1.64.57A2.14,2.14,0,0,1,22.45,47.68Zm-.76,0c0-1.06-.5-1.59-1.49-1.59h-.63v3.21h.52A1.43,1.43,0,0,0,21.69,47.71Z"/><path class="cls-1" d="M28.7,49.94h-.89l-2.18-3.53h0l0,.2c0,.37,0,.72,0,1v2.3H25V45.51h.88L28.06,49h0s0-.21,0-.5,0-.52,0-.69V45.51h.67Z"/><path class="cls-1" d="M32.61,49.94l-.44-1.23H30.48l-.43,1.23h-.77l1.66-4.44h.79l1.65,4.44ZM32,48.09l-.42-1.21c0-.08-.07-.21-.12-.38s-.09-.3-.11-.38q-.09.38-.24.81l-.4,1.16Z"/><path class="cls-1" d="M35.49,49.94h-.72V46.13h-1.3v-.62H36.8v.62H35.49Z"/><path class="cls-1" d="M37.48,49.94V45.51h.72v4.43Z"/><path class="cls-1" d="M43.3,47.72a2.42,2.42,0,0,1-.54,1.68,2,2,0,0,1-1.53.6,2,2,0,0,1-1.54-.59,2.44,2.44,0,0,1-.54-1.7A2.39,2.39,0,0,1,39.69,46a2,2,0,0,1,1.54-.59,2,2,0,0,1,1.53.6A2.42,2.42,0,0,1,43.3,47.72Zm-3.38,0A2,2,0,0,0,40.25,49a1.34,1.34,0,0,0,2,0,2.48,2.48,0,0,0,0-2.47,1.16,1.16,0,0,0-1-.43,1.18,1.18,0,0,0-1,.43A2,2,0,0,0,39.92,47.72Z"/><path class="cls-1" d="M47.93,49.94h-.88l-2.18-3.53h0v.2c0,.37,0,.72,0,1v2.3h-.65V45.51h.87L47.29,49h0s0-.21,0-.5,0-.52,0-.69V45.51h.66Z"/><path class="cls-1" d="M51.65,48.74a1.11,1.11,0,0,1-.42.92,1.84,1.84,0,0,1-1.18.34,2.9,2.9,0,0,1-1.23-.23v-.69a3.48,3.48,0,0,0,.64.23,3,3,0,0,0,.64.08,1,1,0,0,0,.63-.17.5.5,0,0,0,.21-.43.55.55,0,0,0-.19-.42A2.64,2.64,0,0,0,50,48a2.08,2.08,0,0,1-.85-.56,1.18,1.18,0,0,1-.25-.76,1.06,1.06,0,0,1,.39-.87,1.67,1.67,0,0,1,1.06-.32,3,3,0,0,1,1.27.28l-.23.59a2.74,2.74,0,0,0-1.06-.25.82.82,0,0,0-.53.15.52.52,0,0,0-.18.41.54.54,0,0,0,.07.29.76.76,0,0,0,.24.23,3.36,3.36,0,0,0,.6.29,3.39,3.39,0,0,1,.71.38,1.06,1.06,0,0,1,.34.4A1.18,1.18,0,0,1,51.65,48.74Z"/><path class="cls-1" d="M42.47,10.49A18.21,18.21,0,0,1,43.68,23.4,18.54,18.54,0,0,1,15.54,33.83,18.52,18.52,0,0,1,17.57,2a19.55,19.55,0,0,1,8.35-2A18.47,18.47,0,0,1,42.47,10.49ZM26.29.9a13.28,13.28,0,0,1,0,2.53.37.37,0,0,1,.08-.22c.13-.07.24,0,.29.13s.07.35,0,.42c.11,0,.16-.06.26-.06a13.79,13.79,0,0,1,5.8,1.76v0c.35-.18.81-.41,1.18-.09.44-.17.52.37.88.44a1.93,1.93,0,0,1,1,1.24c.08.16.34.28.37.45a7.13,7.13,0,0,1,1.39-1.6l.31-.13a17.19,17.19,0,0,0-9.74-4.61A14.84,14.84,0,0,1,26.29.9Zm-1,.09a17.92,17.92,0,0,0-9.88,3.5c-.56.39-1.06,1-1.62,1.3h.08a17.07,17.07,0,0,1,2,2l0-.13A14.63,14.63,0,0,1,25.3,3.67l-.09-.22,0-2.2Zm3.15,1.39L27.09,3c-.11-.05-.32-.1-.4,0s0,.11,0,.16c.49.62,1.33.27,1.94.16A1.16,1.16,0,0,0,29.84,3V2.93A1.81,1.81,0,0,0,28.41,2.38ZM26.27,4.65l.09.17c0,.85,0,1.76,0,2.56a2.86,2.86,0,0,1,1.05,0,10.72,10.72,0,0,1,4.94,2,1.32,1.32,0,0,1-.42-.66s.06,0,.11,0c0-.28-.28-.43-.33-.68a.2.2,0,0,1,.2-.09,6.48,6.48,0,0,1,.81,1,.51.51,0,0,1,.51.15c.27.16.1.5.31.68,0,.55.69.85.66,1.39,0,.13.16,0,.22.09l.55.68a.28.28,0,0,0,.09.38c.25.11.39-.2.63-.16.36.2,0,.44,0,.66.13,0,.31-.11.42,0s-.17.33-.25.46.17.16.31.2a.25.25,0,0,1,.22.33c.46.48-.14,1,.09,1.5a.89.89,0,0,1-.24.9c0,.4-.36.65-.51,1l-.47.09c-.24.25.21.55,0,.71l1,0-.11-.11a1.55,1.55,0,0,1,.14-1.31,3.15,3.15,0,0,1,.49-1c.06,0,.18-.13.24,0a1.81,1.81,0,0,1-.16.95,2.77,2.77,0,0,1,.29,1.5c.91-.06,1.8-.08,2.69-.07l-.09-.17A13,13,0,0,0,38.5,13c-.19,0-.33.17-.55.11a.17.17,0,0,1-.11-.18,13.43,13.43,0,0,0-1-1.12c-.47,0-.68-.5-1.1-.55s-.12-.77-.66-.6a.87.87,0,0,1-.58-.61A1.5,1.5,0,0,0,34,8.74c-.33-.12-.46.32-.79.25s-.11-.33-.16-.49-.22-.24-.19-.42c.43-.57-.53-.56-.32-1.12,0-.4-.46-.56-.67-.88A15,15,0,0,0,27.37,4.8,3.05,3.05,0,0,1,26.27,4.65Zm8.31,0c-.19.19-.36-.16-.53,0a.42.42,0,0,0,.06.27c.39.13.43.69.93.57.15-.17-.09-.34,0-.56A.56.56,0,0,0,34.58,4.66ZM18.1,7.13c-.57.4-1.09.91-1.68,1.26a14.19,14.19,0,0,1,1.85,1.72l.07.17a11,11,0,0,1,5.51-2.79,5.08,5.08,0,0,1,1.45-.11,17.91,17.91,0,0,1,0-2.64A14.07,14.07,0,0,0,18.1,7.13ZM38.5,6.3a19.53,19.53,0,0,1-1.83,2l-.31.07c.19,0,.25.27.38.41.67.36.84,1.08,1.43,1.48.33.69,1.09,1.22,1.12,2a14.63,14.63,0,0,1,1.4,5.7l-.08.11a.35.35,0,0,0,.22-.08l2.65-.05c-.18-.25-.1-.63-.15-.94A18.11,18.11,0,0,0,38.5,6.3Zm-25.25.06a18.06,18.06,0,0,0-4.7,10c-.1.55,0,1.12-.15,1.68a19.23,19.23,0,0,1,2.84,0l-.06-.36a14.91,14.91,0,0,1,2.75-7.87,7.53,7.53,0,0,1,1.23-1.4c-.6-.56-1.22-1.21-1.85-1.83ZM25.32,8.28l-.15.09A10.8,10.8,0,0,0,19,11a24.24,24.24,0,0,1,2,1.83c.05-.06.09-.13.14-.2a8.14,8.14,0,0,1,2.8-1.45A4,4,0,0,1,25.32,11,12.28,12.28,0,0,1,25.32,8.28Zm1,0,.09.2,0,2.49.24-.05a8,8,0,0,1,4.12,1.69l.07.19c.41-.58,1-1.08,1.52-1.63l.46-.26-.22-.1a10.9,10.9,0,0,0-3.31-1.91A16.42,16.42,0,0,0,26.29,8.3ZM15.76,9l0,.17-1,1.26A14.6,14.6,0,0,0,12.12,18l2.52,0,.24.09c-.11-.07-.08-.18-.11-.27a11.09,11.09,0,0,1,2.92-6.89A18.6,18.6,0,0,1,15.76,9Zm17.56,2.55,0,.11c-.85.88-1.78,1.79-2.58,2.69a.63.63,0,0,0,.24.27c0-.22.16-.41.18-.64.22-.31.55-.11.83-.05a6.47,6.47,0,0,1,1.31.09c.33.17.36.59.66.75a.26.26,0,0,1-.09.35c.09.69.42-.18.77,0,.15.06.33,0,.44.2s.4.23.42.5-.17.18-.26.25c.08.28-.29.45-.16.74.53.11.55-.51.8-.79a4.91,4.91,0,0,0-.52-1.38c-.3-.07-.48-.42-.79-.49-.58-.23.1-.6,0-.94A10.8,10.8,0,0,0,33.32,11.54Zm-14.94.09a10.92,10.92,0,0,0-2.47,5.09,7.83,7.83,0,0,1-.22,1.37A2.34,2.34,0,0,1,16.84,18c-.21-.11,0-.37-.16-.52s-.06-.52.16-.66c0-.38.38-.57.41-.91s.55-.13.76-.33,0-.2,0-.3c.18-.25.46-.24.68-.38a1.9,1.9,0,0,1,.62-.64c.55,0,.56-.76,1.08-.78A22.6,22.6,0,0,1,18.38,11.63Zm7.94.31a18.42,18.42,0,0,1,.12,1.9l.67.22c.19-.32.61-.39.79-.69.12-.1.26,0,.35.11a1.67,1.67,0,0,1-.11.73c-.24.5-.83.56-1.16.92.21.12.33-.1.5-.15a1.12,1.12,0,0,1,.62.42c.16.07.32,0,.47-.08.1-.77,1.05-.66,1.34-1.37l-.18.06c-.07-.1-.26,0-.25-.22a1.87,1.87,0,0,1,.55-.44,9.47,9.47,0,0,0-2.61-1.19C27.05,12.07,26.67,12.06,26.32,11.94Zm-4.94,1.92h.2c.22.22.58.17.74.46s-.15.15-.14.29.11,0,.14.11.14-.1.2-.18c.23-.23.27.22.49.22a.34.34,0,0,1,.49.07c.14-.13.46,0,.5-.25.29-.3.13-.77.55-1,.15.08,0,.22.05.35.28.11.61-.24.83,0a5.78,5.78,0,0,1-.13-2A6.22,6.22,0,0,0,21.38,13.86Zm4.45,1.52c-.15-.17-.47-.06-.66,0,.18.18.11.51.22.74a1.77,1.77,0,0,1-1.17.69c-.12.15-.09.47-.37.44-.1.2-.41.32-.29.62a5.9,5.9,0,0,0-.15,1.05c-.55.34-.39-.45-.67-.61l-.09.15c-.11,0-.18,0-.25-.11s-.22-.05-.3,0-.3.37-.26.65-.33.11-.29.28a5,5,0,0,0,.93-.13c.21.06.38-.1.6-.11a.2.2,0,0,1,.12.22h.08a.37.37,0,0,0,.14-.44c0-.19.23-.19.36-.25s0,.18.07.27c.41.16-.1.46-.16.68s0,.57-.35.51a.13.13,0,0,1-.09-.15H23.2a.46.46,0,0,0,.25.41c.26-.21.27-.57.64-.62.19-.2-.09-.51.2-.67.47,0,1-.22,1.37.17,0,.17-.1.24,0,.38a1.81,1.81,0,0,1-.33.61.31.31,0,0,1-.09.35c-.13.56-.77.29-1.15.49a3,3,0,0,0,2,.55c.4,0,.22-.51.42-.73.13-.64.72-.2,1.08-.37a3,3,0,0,0,.31-.86.61.61,0,0,1-.25-.69c-.16-.21-.14-.59-.48-.63a.18.18,0,0,1,0-.22c0-.2.19-.27.25-.42-.21-.14-.16-.44-.14-.62-.36.1-.39-.37-.66-.47-.06-.21-.29-.24-.48-.28-.44.21-.51-.33-.84-.46,0-.1-.11-.25,0-.33s.38,0,.58,0Zm-8,2.27c-.74.24.12.8-.06,1.26-.1.26-.38,0-.57.12l-.08.49c-.11.29-.46.07-.63.27s0,.37.11.52c-.26.59.58.77.57,1.3.26.33,0,.81.33,1.11.08.59-.08,1.4.44,1.87l.09.57c.11.39-.47.29-.39.64.11-.05.14.09.14.13v0a24.29,24.29,0,0,1,2.36-2.4l-.34-.35A9.14,9.14,0,0,1,18.4,20l-.26-.14a7.37,7.37,0,0,0-.13.82l-.1.11c-.19,0-.31-.17-.47-.27s-.14-.27,0-.35a.29.29,0,0,1,.22.07c.08-.11,0-.25.09-.38s-.17-.42,0-.62c.17,0,.3.2.38.32s.31-.1.46-.16.22-.37,0-.46a2.19,2.19,0,0,0,0-1.08C18.44,17.56,18.1,17.62,17.85,17.65ZM35,18c-.07,0-.18,0-.27,0A.63.63,0,0,1,35,18Zm-.57.9.28.28c.29.2.1.61.4.78s.49.59.64.9a.65.65,0,0,0,.08-.26c.13-.51.11-1.08.27-1.57A3.88,3.88,0,0,1,34.47,18.86Zm6.28.13-.16-.11.1.25a14.87,14.87,0,0,1-2.91,8.15,6.16,6.16,0,0,1-1.09,1.18,19.49,19.49,0,0,1,2.05,2l.07-.13a17.67,17.67,0,0,0,4.58-11.21l.11-.22-.13.06Zm-3.68-.07a10.23,10.23,0,0,1-.13,1.66l.3.33a.32.32,0,0,1-.06.42.36.36,0,0,1-.42,0,12.26,12.26,0,0,1-1.61,3.51c-.3.38-.6.92-1,1.12l.83.73s0-.12,0-.18.06-.24.19-.22c.41,0,.42.42.65.64,0,.35.25.63.15,1a13.59,13.59,0,0,0,3.68-8.75l.13-.15c-.82.08-1.7,0-2.55,0ZM15.65,19l.13.22a7.28,7.28,0,0,1,.13,1.8c.1-.17.13-.41.35-.52,0-.17-.22-.21-.19-.38.17-.34,0-.89.46-1A1,1,0,0,1,15.65,19Zm-4.43,0-.25.09-2.55,0a18.78,18.78,0,0,0,2.25,8.06,30.74,30.74,0,0,0,2.44,3.44l1.83-1.89.22-.1a5.08,5.08,0,0,1-.85-.88,1.2,1.2,0,0,1-.77-.59c-.1-.1,0-.28-.11-.35l-.12.13c-.32.16-.44-.17-.66-.31s-.14-.7-.53-.59c-.15,0-.19-.18-.28-.27-.36,0-.45-.36-.65-.55,0,.08,0,.19-.11.25-.36.08-.49-.37-.74-.56-.06,0-.11.11-.2.09a1.08,1.08,0,0,1-.38-.77c-.3-.34-.16-.89-.11-1.3.06-.11.21-.17.19-.31s.28-.21.47-.22a.53.53,0,0,1,.19.17c.12-.07.38,0,.28-.25a1.15,1.15,0,0,1,.6-.22,4.05,4.05,0,0,0,.41.57l-.13-.21a14.77,14.77,0,0,1-.44-2.79c0-.05-.12-.08,0-.14v0A2.59,2.59,0,0,1,11.22,19Zm3.59,0-.2.09A21.46,21.46,0,0,1,12.06,19l.11.15.2,1.69a13.16,13.16,0,0,1,.35,1.92c.1-.14,0-.41.28-.44-.1-.2.2-.38,0-.55a1.85,1.85,0,0,1,.52-1.21c.47,0,.51-.64,1-.66.24,0,.38.31.48.42A1.78,1.78,0,0,1,14.81,19Zm4.72,1.13c.26.47.4,1,.66,1.49s.53.76.7,1.17a5.84,5.84,0,0,1,.77-.9.49.49,0,0,0-.08-.36c-.08-.19,0-.47-.16-.63-.24.08.08.32,0,.46a.15.15,0,0,1-.22-.11.62.62,0,0,1-.44-.42c.18-.11,0-.15-.09-.24s-.1,0-.17,0a.22.22,0,0,1-.14,0C20.34,20.08,19.75,20.39,19.53,20.12Zm2.88.72a1.35,1.35,0,0,1-.37.6l0,0c.22-.16.37-.44.66-.46Zm7.26.76a.74.74,0,0,0,.14.44c.36-.06.21.44.54.39.18-.05,0-.21.06-.33-.05-.27-.32-.3-.5-.47a.15.15,0,0,1,0-.14C29.81,21.41,29.75,21.49,29.67,21.6Zm5.19,0c-.26,0-.58.14-.81,0s-.14,0-.13.11-.18.31-.4.25-.16-.25-.22-.38a.86.86,0,0,1,0,.28,3.26,3.26,0,0,0-.4.62c-.19.21-.5.14-.7.31,0,.44-.53.35-.8.49,0,.05,0,.06.07.11a.36.36,0,0,0,.4-.09c.38.1.3-.39.52-.55s.38-.2.58-.07a1.31,1.31,0,0,1,.22.93c-.22.22-.11.58-.27.83,0,.31-.33.44-.28.75a.64.64,0,0,1-.51.15,8.68,8.68,0,0,0-2.29-.52.16.16,0,0,0-.11.18c.33.17.73.18,1.08.33s.52.46.92.34.88.11,1.1-.23c0-.34.26-.59.4-.89l.11,0c.19.19.18.47.26.69.26-.28.46-.58.69-.87a8.08,8.08,0,0,0,1.34-2.83A2.54,2.54,0,0,0,34.86,21.61Zm-11.56,0a14.47,14.47,0,0,1-1.7,1.83A7.05,7.05,0,0,0,24.9,25c.07-.25,0-.56.09-.78s.34-.19.53-.15a.16.16,0,0,0,.11-.24c-.27-.06-.15-.35-.24-.52s.16-.07.13-.19c-.19-.14.09-.31-.07-.47.07,0,.11-.14.21-.14-.58.3-1.21-.07-1.72-.3C23.7,22.05,23.35,21.91,23.3,21.61Zm5.33,1.61c0,.07-.13.2,0,.25.22-.23.69-.22.71-.55C29,22.87,28.85,23.05,28.63,23.22Zm1,.69c-.29,0-.43.22-.65.39s-.38-.27-.59-.17c0,.05.05.06.09.08a.23.23,0,0,1,0,.27c-.31.28-.46-.14-.75-.11v.11c0,.06,0,.16-.11.13-.19-.31-.56-.2-.75-.46-.12-.07-.23,0-.31.09s-.36,0-.28.22c-.23.08-.26.33-.43.48-.28-.05-.41.27-.68.26,0,.06,0,.15.09.16a.93.93,0,0,0,.53.06c.28-.44.73-.07,1.12-.23.24,0,.07.3.25.39.37-.12.66.32,1,.05,0-.44.47-.4.74-.51s.88-.58.83-1.13Zm-8.86.26A13.5,13.5,0,0,1,19,26c.28,0,.44.33.68.47a11.36,11.36,0,0,0,4.69,2.09l-.44-.2c-.33-.38-.8-.82-.82-1.34.33-.11.3-.48.41-.73a1.81,1.81,0,0,1,1-.53c-.93.39-1.73-.3-2.51-.66A3.57,3.57,0,0,1,20.81,24.17Zm12.75,2.56-.06-.18a1.64,1.64,0,0,1-.42.53c0,.14,0,.36.13.47.37.11.85.35.93.78-.15.41-.92.78-.44,1.22.15.22-.22.3-.16.48l.13-.17a13.23,13.23,0,0,0,1.64-1.37h.06c-.11,0-.25.07-.38,0a.6.6,0,0,1-.3-.62Zm-14.76.35,0-.07,0,.11Zm.29.39a.39.39,0,0,1-.22-.28Zm.06.08c.06.22.35.35.27.63a.77.77,0,0,1-.73.25c-.53-.09-.91.31-1.41.36s-.6-.41-1-.36a14.48,14.48,0,0,0,8.89,3.81l.26.17-.11-.31V29.68l-.22.09A10.71,10.71,0,0,1,19.15,27.55Zm17,1.71,0-.22a4.85,4.85,0,0,1-1.26,1.21c-.6.6-1.57.73-1.87,1.59-.33.3-.44.76-.89.92-.16.44-.63.41-.9.74-.77.68-1.26-.45-2-.58l-1.41.24a4.3,4.3,0,0,1-1.43,0,19.91,19.91,0,0,1,0,2.89l.18-.11a18,18,0,0,0,11.52-4.85Zm-20.38,0,0,.12-1.89,1.9a18.71,18.71,0,0,0,9.79,4.58,13.51,13.51,0,0,1,1.82.22l-.13-.22V33.34l.09-.14-.29.08A14.48,14.48,0,0,1,15.74,29.23Zm10.48.65.14.2a19.1,19.1,0,0,1,0,2.27A13.07,13.07,0,0,1,28.57,32a.86.86,0,0,1-.41-.24c-.43,0-.63-.48-.77-.82s.1-.45.2-.66c-.18-.38-.75-.1-1.08-.24C26.42,30,26.35,29.9,26.22,29.88Z"/><path class="cls-1" d="M43.11,3.48a8.08,8.08,0,0,1,2.35,4.38l.22.51a19.23,19.23,0,0,1-5-5.28L39.18,1.54A13,13,0,0,1,43.11,3.48Z"/><path class="cls-1" d="M9,5.88a31,31,0,0,1-3.06,2.8c.55-1.14.56-2.5,1.34-3.55,1.12-1.93,3.17-2.61,5-3.33A22.38,22.38,0,0,0,9,5.88Z"/><path class="cls-1" d="M47.88,7.91c.44,1.92-.19,3.81.21,5.75l0,0c-1-2.07-3.28-3-4.81-4.69a6.6,6.6,0,0,1-1.5-3.44c.88,2.12,3.25,2.59,4.61,4.37a5.55,5.55,0,0,1,.9,1.45l0,0A38.1,38.1,0,0,1,45.73,6a4.15,4.15,0,0,0-1.55-2A5.32,5.32,0,0,1,47.88,7.91Z"/><path class="cls-1" d="M7.3,4.3C5.48,5.55,5.6,7.79,5,9.65c-.18.69-.5,1.32-.66,2l0,0a6.16,6.16,0,0,1,1.5-2.21c1.29-1.19,3.2-1.94,3.83-3.7,0,2.45-2.07,4.38-4,5.76a8.15,8.15,0,0,0-2,2.42c0-.61.1-1.24,0-1.9C3.52,10,3.36,7.51,4.88,5.92A4.51,4.51,0,0,1,7.3,4.3Z"/><path class="cls-1" d="M49,8.33a8.56,8.56,0,0,1,.8,8.23A15,15,0,0,0,48.9,20c-.08-.2-.1-.48-.17-.71-.64-2.47-3-4.23-3.95-6.56a12.59,12.59,0,0,1-.71-2.38c1,1.9,3.57,2.88,4.26,5a10.3,10.3,0,0,1,.44,1.76s.07,0,.07-.06a24.34,24.34,0,0,1,.08-6.55,5.45,5.45,0,0,0-.77-3.17C48.56,7.51,48.75,8,49,8.33Z"/><path class="cls-1" d="M3.42,7.64c-1.4,2.12-.24,4.79-.31,7.21l-.18,2.47s0,.09.09.06c.08-.27.1-.57.16-.85.33-2,2.06-3.41,3.57-4.79a3.7,3.7,0,0,0,.77-1.14,10.32,10.32,0,0,1-.84,2.91c-1.18,2.29-3.35,4.17-3.75,6.8C2.74,17.79,1,15.91,1.2,13.24A8.42,8.42,0,0,1,3.31,7.69S3.37,7.63,3.42,7.64Z"/><path class="cls-1" d="M50.56,22.62c-1,1.37-2.13,2.65-3,4a7.65,7.65,0,0,0-.21-3.5,30.57,30.57,0,0,1-1.6-7l0-.94c.56,2.52,3,4.26,2.89,7.08a6.38,6.38,0,0,1-.29,1.88l0,0,.11-.13a28.7,28.7,0,0,1,1.12-4.14c.82-1.86,1.83-3.74,1.41-6A10.17,10.17,0,0,1,50.56,22.62Z"/><path class="cls-1" d="M2.71,21.74a22.94,22.94,0,0,0,.71,2.8s.06,0,.09,0c-.95-2.65.41-5.1,1.78-7.16A7.2,7.2,0,0,0,6,15.51a15.56,15.56,0,0,1-.33,3.81c-.33,1.58-.83,3.07-1.26,4.61a7.23,7.23,0,0,0-.06,3l-.14-.11c-1-1.85-3-3.29-3.57-5.31a11.2,11.2,0,0,1-.48-5.22,9.84,9.84,0,0,1,.57-2C.15,17.19,2.08,19.25,2.71,21.74Z"/><path class="cls-1" d="M46.76,27a6.47,6.47,0,0,1-1.12,3.33h.11a42.65,42.65,0,0,1,2.6-3.49c1.6-1.54,3.23-3.12,3.44-5.26.54,3.57-1.46,6.7-4.43,8.72-1.22.8-2.46,1.54-3.64,2.45v-.11c1.8-3,.92-7.09,2-10.38l.42-1.1C45.94,23.17,46.83,24.91,46.76,27Z"/><path class="cls-1" d="M7.34,31c.19.67.59,1.28.84,1.93-2.73-1.86-6.46-3.63-7.67-7a8.39,8.39,0,0,1-.46-4c.22,3,3.49,4.64,5,7.16A8.37,8.37,0,0,0,6.2,30.6c-.07-.32-.38-.59-.49-.92a6.56,6.56,0,0,1-.59-3.59c.14-1.56.79-3,.55-4.63C7,24.33,6.59,27.91,7.34,31Z"/><path class="cls-1" d="M42.69,33.29a8.94,8.94,0,0,1-1.88,2.25c.24,0,.45-.22.67-.36,2-2,4.54-2.51,6.67-4.11a6.52,6.52,0,0,0,2-2.53c-.4,3.26-3.64,6.31-6.7,7.29-1.58.42-3.27.56-4.8,1.08,2.6-2.23,2.45-5.68,4.18-8.31a26.27,26.27,0,0,1,1.66-2.23C43.44,28.49,43.9,31.24,42.69,33.29Z"/><path class="cls-1" d="M9.9,30.54c.92,2.26,1.27,4.81,3.39,6.52-2.3-.76-5-.54-7-2a9.65,9.65,0,0,1-4.6-6.2C3.21,32.36,7,32.64,9.59,34.74a6.27,6.27,0,0,0,1.49,1l0,0a8.83,8.83,0,0,1-1.68-1.83c-1.5-2.09-1-5-2.09-7.25A16.93,16.93,0,0,1,9.9,30.54Z"/><path class="cls-1" d="M37.13,37.26a14.24,14.24,0,0,1-1.84.71,21.54,21.54,0,0,0,2.39-.36c3-.48,6.5,0,8.62-2.57A8.13,8.13,0,0,1,41.74,39c-3.09,1.16-6.21-.27-9.17-.75L32,38.16v0a8.31,8.31,0,0,0,3.92-1.76,39.7,39.7,0,0,1,5-4.5C39.54,33.63,39.39,36.13,37.13,37.26Z"/><path class="cls-1" d="M15.89,36.42A8.52,8.52,0,0,0,20,38.23c-.36.13-.82.09-1.21.2-2.67.66-5.65,1.73-8.48.77A8.24,8.24,0,0,1,5.6,35.34C8,38.12,12,37.2,15.3,37.92a4.48,4.48,0,0,0,1.37.17c-.39-.24-.93-.22-1.35-.44-2.56-.9-2.93-3.66-4.32-5.52A38.92,38.92,0,0,1,15.89,36.42Z"/><path class="cls-1" d="M35.84,40.19a7.09,7.09,0,0,0,6.25-.68,7.46,7.46,0,0,1-3.3,2.31c-2.76,1-5.63,0-7.78-1.68-.87-.55-1.65-1.35-2.77-1.27a3.88,3.88,0,0,0-1.15.11,21.16,21.16,0,0,1,5.81,4,8.06,8.06,0,0,1-1.06,1,20.33,20.33,0,0,0-5.73-4.65,3.68,3.68,0,0,0-1.18.5A17.66,17.66,0,0,0,20.21,44l-1.1-.91A20.13,20.13,0,0,1,25,39c-2.1-.66-3.46,1.09-5.05,2a7.4,7.4,0,0,1-10-1.21,7.19,7.19,0,0,0,6.39.55C19,39.11,21.77,37.64,25,38.34c.51,0,1,.52,1.48.09a10.34,10.34,0,0,1,7.21.9Z"/></svg>