<svg id="Layer_1" data-name="Layer 1" xmlns="http://www.w3.org/2000/svg" xmlns:xlink="http://www.w3.org/1999/xlink" viewBox="0 0 138.66 50.21"><defs><style>.cls-1{fill:none;}.cls-2{clip-path:url(#clip-path);}.cls-3{fill:#fff;}.cls-4{fill:#231f20;}.cls-5{clip-path:url(#clip-path-2);}.cls-6{clip-path:url(#clip-path-3);}</style><clipPath id="clip-path" transform="translate(5.83 0.16)"><path class="cls-1" d="M60.7,24.92c7.73-7.08,6.76-11.46,6.76-11.46C67,.13,53.58,0,53.58,0H28.33V10.39L35,10.5V39.67H28.24V50.11h25.7c12.62-.33,13.33-11.85,13.33-11.85C68,30.4,60.7,24.92,60.7,24.92ZM46,11.21h10v7.47H46ZM56.13,39.35H46V31.11H56.13Z"/></clipPath><clipPath id="clip-path-2" transform="translate(5.83 0.16)"><polygon class="cls-1" points="70.1 10.43 70.1 0 89.36 0 97.73 22.54 105.78 0.13 125.17 0.13 125.17 10.3 118.53 10.3 118.53 39.67 125.17 39.67 125.17 49.98 107.91 49.98 107.91 21.19 97.73 49.91 87.42 21.13 87.42 49.98 69.97 49.98 69.97 39.54 76.86 39.54 76.86 10.5 70.1 10.43"/></clipPath><clipPath id="clip-path-3" transform="translate(5.83 0.16)"><polygon class="cls-1" points="0.1 49.98 0.1 39.59 7.07 39.59 7.07 10.41 0 10.41 0 0.17 24.63 0.17 24.63 10.26 17.91 10.26 17.91 39.64 24.73 39.64 24.73 49.93 0.1 49.98"/></clipPath></defs><title>IBM</title><g class="cls-2"><rect class="cls-3" y="43.47" width="138.66" height="3"/><rect class="cls-4" y="46.33" width="138.66" height="3.88"/><rect class="cls-3" y="37.22" width="138.66" height="3"/><rect class="cls-4" y="40.08" width="138.66" height="3.88"/><rect class="cls-3" y="30.45" width="138.66" height="3"/><rect class="cls-4" y="33.32" width="138.66" height="3.88"/><rect class="cls-3" y="23.69" width="138.66" height="3"/><rect class="cls-4" y="26.55" width="138.66" height="3.88"/><rect class="cls-3" y="16.92" width="138.66" height="3.01"/><rect class="cls-4" y="19.78" width="138.66" height="3.88"/><rect class="cls-3" y="10.67" width="138.66" height="3"/><rect class="cls-4" y="13.54" width="138.66" height="3.88"/><rect class="cls-3" y="3.9" width="138.66" height="3.01"/><rect class="cls-4" y="6.77" width="138.66" height="3.88"/><rect class="cls-4" width="138.66" height="3.88"/></g><g class="cls-5"><rect class="cls-3" y="43.47" width="138.66" height="3"/><rect class="cls-4" y="46.33" width="138.66" height="3.88"/><rect class="cls-3" y="37.22" width="138.66" height="3"/><rect class="cls-4" y="40.08" width="138.66" height="3.88"/><rect class="cls-3" y="30.45" width="138.66" height="3"/><rect class="cls-4" y="33.32" width="138.66" height="3.88"/><rect class="cls-3" y="23.69" width="138.66" height="3"/><rect class="cls-4" y="26.55" width="138.66" height="3.88"/><rect class="cls-3" y="16.92" width="138.66" height="3.01"/><rect class="cls-4" y="19.78" width="138.66" height="3.88"/><rect class="cls-3" y="10.67" width="138.66" height="3"/><rect class="cls-4" y="13.54" width="138.66" height="3.88"/><rect class="cls-3" y="3.9" width="138.66" height="3.01"/><rect class="cls-4" y="6.77" width="138.66" height="3.88"/><rect class="cls-4" width="138.66" height="3.88"/></g><g class="cls-6"><rect class="cls-3" y="43.47" width="138.66" height="3"/><rect class="cls-4" y="46.33" width="138.66" height="3.88"/><rect class="cls-3" y="37.22" width="138.66" height="3"/><rect class="cls-4" y="40.08" width="138.66" height="3.88"/><rect class="cls-3" y="30.45" width="138.66" height="3"/><rect class="cls-4" y="33.32" width="138.66" height="3.88"/><rect class="cls-3" y="23.69" width="138.66" height="3"/><rect class="cls-4" y="26.55" width="138.66" height="3.88"/><rect class="cls-3" y="16.92" width="138.66" height="3.01"/><rect class="cls-4" y="19.78" width="138.66" height="3.88"/><rect class="cls-3" y="10.67" width="138.66" height="3"/><rect class="cls-4" y="13.54" width="138.66" height="3.88"/><rect class="cls-3" y="3.9" width="138.66" height="3.01"/><rect class="cls-4" y="6.77" width="138.66" height="3.88"/><rect class="cls-4" width="138.66" height="3.88"/></g></svg>