<svg id="Layer_1" data-name="Layer 1" xmlns="http://www.w3.org/2000/svg" viewBox="0 0 262 49.87"><defs><style>.cls-1{fill:#1d2859;}</style></defs><title>AIRBUS</title><path class="cls-1" d="M60.41,48.66H72.15V1.47H60.41Zm59.23-31.52c0-8.6-5.9-15.57-18-15.57H77.14V48.76H88.49V11.54H102.4c4.12,0,5.83,2.54,5.83,5.57s-1.79,5.48-5.91,5.48H92.58l14.73,26.17H119s-10.08-17.11-10-17.12c7.28-2.26,10.71-7.78,10.71-14.5M23.85,1.45,0,48.64H14.16l3.56-7.59H34l-5-10.33H22.5l6.05-12.91L43.79,48.64H58L33.21,1.45ZM245.19,19.73c-9.52-2.07-12.73-3-12.73-6,0-2.66,3.44-4,8.89-4a32.68,32.68,0,0,1,15,4.38l3.71-9.61A52.41,52.41,0,0,0,239.1,0c-11.51,0-18.71,6.73-18.71,15s5.93,11.87,17.67,14.35c9.1,1.93,11.57,3.08,11.57,5.92s-3.65,3.87-8.58,3.87c-6.39,0-12.53-2.12-18.33-4.61l-3.5,9.36c6.92,3.21,14.11,5.78,22.68,5.78,14.28,0,20.1-6.82,20.1-14.77,0-7.07-4.9-12.53-16.81-15.12M203.91,1.34V27.87c0,8.12-4.75,11.52-10.58,11.52S182.82,36,182.82,27.88V1.34H171.05V28c0,17,10,21.91,22.3,21.91S215.67,44.92,215.67,28V1.34ZM161.28,24.42c3.06-2.16,4.22-5.73,4.22-9.66A13.58,13.58,0,0,0,151.64,1.45H124V48.64h28.73v0c8.07,0,14.79-6.24,14.79-13.85a11.83,11.83,0,0,0-6.24-10.39m-25.92-13h16.27a4.08,4.08,0,0,1,4.12,4,4.14,4.14,0,0,1-4.21,4H135.36v-8Zm16.56,27.27H135.35v-9.3h16.58A4.81,4.81,0,0,1,156.85,34a4.83,4.83,0,0,1-4.93,4.68"/></svg>