<svg id="Layer_1" data-name="Layer 1" xmlns="http://www.w3.org/2000/svg" viewBox="0 0 225.33 49.88"><defs><style>.cls-1{fill:#ed2224;}.cls-2{fill:#010101;}</style></defs><title>VERIZON</title><path class="cls-1" d="M220.15.08C221.88,0,223.6,0,225.33,0c-5.18,10.83-10.18,21.74-15.26,32.62-1.41,0-2.81,0-4.21,0-2.34-5.48-5-10.8-7.48-16.24,1.69,0,3.37-.05,5.06,0,1.46,3.35,3.17,6.58,4.51,10C212,17.6,216.22,8.9,220.15.08Z" transform="translate(0 0)"/><path class="cls-2" d="M89.87,4.72c3.34,0,6.68,0,10,0,0,3,0,5.95,0,8.93-3.35-.05-6.69,0-10,0C89.88,10.66,89.82,7.69,89.87,4.72Z" transform="translate(0 0)"/><path class="cls-2" d="M39.47,17.49c6.82-3.87,16.73-2.55,21.34,4.12,2.83,3.95,3.63,9,3.6,13.72-7.83.07-15.66,0-23.49,0,.36,2.42,1.4,5,3.64,6.22,3.16,1.85,8.18,1.33,9.78-2.36,3.21-.1,6.43-.08,9.64,0a13.93,13.93,0,0,1-7.07,8.56,18.72,18.72,0,0,1-12.07,1.7,15.93,15.93,0,0,1-10.67-6.71,18.9,18.9,0,0,1-2.72-13.21A16.22,16.22,0,0,1,39.47,17.49Zm5.33,5.66c-2.23,1.07-3.33,3.48-3.82,5.78q6.68,0,13.36,0A8.19,8.19,0,0,0,52.07,24C50.16,22.2,47.12,22.14,44.8,23.15Z" transform="translate(0 0)"/><path class="cls-2" d="M144.4,15.76c5.38-1,11.34.16,15.47,3.9,7.06,6.26,7.36,18.43.81,25.16-5.17,5.4-13.86,6.41-20.51,3.35a16.45,16.45,0,0,1-9.24-13.12,19.43,19.43,0,0,1,1.24-9.55A16.16,16.16,0,0,1,144.4,15.76Zm1.15,7.41c-2.83,1-4.13,4.07-4.54,6.82-.33,3.47-.28,7.37,2,10.24,2.4,3.14,7.72,3.05,10.14,0,2-2.51,2.3-5.93,2.11-9-.16-2.73-1.08-5.66-3.38-7.31A7.08,7.08,0,0,0,145.55,23.17Z" transform="translate(0 0)"/><path class="cls-2" d="M180.17,17.62A12.08,12.08,0,0,1,192,16.31a10.51,10.51,0,0,1,5.72,6.38c1.07,2.86.75,6,.79,9,0,5.73,0,11.45,0,17.18-3.33.06-6.67,0-10,0,0-6.55,0-13.11,0-19.66a5.61,5.61,0,0,0-2-4.56,5.73,5.73,0,0,0-7.08.65,7.73,7.73,0,0,0-2,5.56c0,6,0,12,0,18-3.29-.07-6.58,0-9.87,0,0-10.83,0-21.66,0-32.49,3.21,0,6.43,0,9.65,0,0,1.5,0,3-.08,4.49A20.26,20.26,0,0,1,180.17,17.62Z" transform="translate(0 0)"/><path class="cls-2" d="M0,16.36H10.36c2.07,7,4.32,13.93,6.29,20.94,2.4-6.89,4.25-14,6.49-20.92,3.35-.05,6.69,0,10,0C29.36,27.17,25.61,38,21.85,48.84c-3.46,0-6.93-.05-10.39,0C7.53,38.09,4,27.14,0,16.36Z" transform="translate(0 0)"/><path class="cls-2" d="M66.69,16.36c3.19,0,6.38,0,9.57,0,0,1.82,0,3.65-.1,5.47.84-.91,1.42-2,2.28-2.92a9,9,0,0,1,8.74-2.52c0,2.86,0,5.71,0,8.57-2.47-.28-5.18-.17-7.27,1.32a8.43,8.43,0,0,0-3.2,7c0,5.17,0,10.35,0,15.53-3.34,0-6.68,0-10,0Q66.74,32.62,66.69,16.36Z" transform="translate(0 0)"/><path class="cls-2" d="M89.83,16.37c3.35,0,6.71,0,10.06,0-.06,10.83,0,21.67,0,32.51-3.35,0-6.69,0-10,0Q89.89,32.61,89.83,16.37Z" transform="translate(0 0)"/><path class="cls-2" d="M102.6,16.34c9.05,0,18.1,0,27.15,0-.1,2.48,0,5-.05,7.44a8.73,8.73,0,0,1-1.29,1.63C123.75,30.59,119.2,35.85,114.5,41c5.33.1,10.65,0,16,.05,0,2.61,0,5.22,0,7.84q-13.92-.07-27.86,0c0-2.52,0-5,0-7.54,4.85-5.45,9.72-10.9,14.63-16.29.15-.29.74-.56.43-.92-5,.15-10,0-15,.08C102.58,21.58,102.61,19,102.6,16.34Z" transform="translate(0 0)"/></svg>