<svg width="128" height="128" viewBox="0 0 128 128" fill="none" xmlns="http://www.w3.org/2000/svg">
<path d="M42.7624 73.9127L41.3873 73.4061C40.285 72.9999 39.0905 72.4359 37.8019 71.6996C36.5138 70.9635 35.4082 70.2133 34.4736 69.4539L33.2686 68.4749L31.8568 69.121L22.2546 73.5152L15.2729 61.2034L24.1721 54.6938L25.4911 53.7289L25.1366 52.1336C25.0429 51.712 24.9744 51.1847 24.9462 50.5371C24.9143 49.8046 24.899 49.1651 24.899 48.6154C24.899 48.0657 24.9143 47.4262 24.9462 46.6937C24.9744 46.0461 25.0429 45.5188 25.1366 45.0971L25.4911 43.5018L24.1721 42.537L15.2729 36.0274L22.2546 23.7156L31.8568 28.1098L33.2686 28.7559L34.4736 27.7768C35.4082 27.0175 36.5138 26.2672 37.8019 25.5312C39.0655 24.8091 40.2225 24.2945 41.2759 23.9618L42.7519 23.4958L42.9926 21.9668L44.641 11.5H58.5924L60.2386 21.8708L60.4683 23.3181L61.8434 23.8247C62.9707 24.24 64.2019 24.8 65.5396 25.5155C66.8028 26.1912 67.8224 26.9124 68.6279 27.6642L69.8517 28.8064L71.374 28.1098L80.9762 23.7156L87.9444 36.0035L79.0833 42.3211L77.7658 43.2604L78.0832 44.847C78.1871 45.3666 78.2564 45.9475 78.2846 46.5947C78.3162 47.323 78.3317 47.9963 78.3317 48.6154C78.3317 49.2342 78.3163 49.8895 78.2848 50.5817C78.2571 51.1913 78.1885 51.7581 78.0832 52.2847L77.768 53.8607L79.0709 54.8017L87.9512 61.2152L80.9762 73.5152L71.374 69.121L69.9622 68.4749L68.7572 69.4539C67.8008 70.231 66.69 71.0091 65.4172 71.7852C64.2195 72.5155 63.0772 73.031 61.9893 73.3574L60.4848 73.8087L60.2386 75.36L58.5924 85.7308H44.6383L42.9922 75.36L42.7624 73.9127Z" stroke="url(#paint0_linear_96_129)" stroke-width="5"/>
<circle cx="51.5" cy="48.5" r="10.5" fill="#78BE20"/>
<path d="M89.9956 118.79L89.4221 113.275C87.8928 112.815 86.3253 112.145 84.7195 111.264C83.1138 110.383 81.8139 109.406 80.8199 108.333L76.0026 110.632L71.9883 104.427L76.3467 100.979C75.9644 99.2173 75.7732 97.6277 75.7732 96.2104C75.7732 94.7932 75.9644 93.2036 76.3467 91.4417L71.9883 87.9943L76.0026 81.6743L80.8199 83.9725C81.8139 83.0532 83.1138 82.1339 84.7195 81.2146C86.3253 80.2953 87.8928 79.6059 89.4221 79.1462L89.9956 73.5156H96.8773L97.5655 79.1462C99.0948 79.6059 100.662 80.2953 102.268 81.2146C103.874 82.1339 105.174 83.0532 106.168 83.9725L110.985 81.6743L114.999 87.9943L110.641 91.4417C111.023 93.2036 111.214 94.7932 111.214 96.2104C111.214 97.6277 111.023 99.2173 110.641 100.979L114.999 104.427L110.985 110.632L106.168 108.333C105.174 109.406 103.874 110.383 102.268 111.264C100.662 112.145 99.0948 112.815 97.5655 113.275L96.8773 118.79H89.9956ZM93.4364 107.874C96.8008 107.874 99.5918 106.763 101.809 104.541C104.027 102.32 105.135 99.5237 105.135 96.153C105.135 92.7823 104.027 89.9861 101.809 87.7645C99.5918 85.5429 96.8008 84.4321 93.4364 84.4321C90.072 84.4321 87.2811 85.5429 85.0636 87.7645C82.8462 89.9861 81.7374 92.7823 81.7374 96.153C81.7374 99.5237 82.8462 102.32 85.0636 104.541C87.2811 106.763 90.072 107.874 93.4364 107.874Z" fill="#008BD4"/>
<defs>
<linearGradient id="paint0_linear_96_129" x1="41.4286" y1="11.2637" x2="78.7802" y2="76.3461" gradientUnits="userSpaceOnUse">
<stop stop-color="#7F35AC"/>
<stop offset="1" stop-color="#008BD4"/>
</linearGradient>
</defs>
</svg>
