<svg width="31" height="31" viewBox="0 0 31 31" fill="none" xmlns="http://www.w3.org/2000/svg">
<circle cx="15.4806" cy="15.4806" r="15.4806" fill="white"/>
<path fill-rule="evenodd" clip-rule="evenodd" d="M22.119 21.4843C22.9661 21.363 23.6519 20.7159 23.8133 19.8666C23.9746 18.9365 24.136 17.5615 24.1763 15.863C24.1763 14.1645 23.9746 12.7895 23.8133 11.8594C23.6519 11.0101 22.9661 10.363 22.119 10.2417C20.7474 10.0395 18.5691 9.79688 16.068 9.79688C13.5669 9.79688 11.3482 10.0395 10.017 10.2417C9.16986 10.363 8.48408 11.0101 8.32272 11.8594C8.16136 12.7895 8 14.1645 8 15.863C8 17.5615 8.16136 18.9365 8.32272 19.8666C8.48408 20.7159 9.16986 21.363 10.017 21.4843C11.3886 21.6865 13.6073 21.9291 16.068 21.9291C18.5691 21.9291 20.7878 21.6865 22.119 21.4843ZM19.3282 15.8654L14.4753 13.0345V18.6962L19.3282 15.8654Z" fill="#15153E"/>
</svg>
